<?xml version="1.0" encoding="utf-8"?>
<svg xmlns="http://www.w3.org/2000/svg" xmlns:xlink="http://www.w3.org/1999/xlink" width="400" height="250" viewBox="0 0 1600 1000">
<defs>
  <clipPath id="clip880">
    <rect x="0" y="0" width="1600" height="1000"/>
  </clipPath>
</defs>
<path clip-path="url(#clip880)" d="M0 1000 L1600 1000 L1600 0 L0 0  Z" fill="#ffffff" fill-rule="evenodd" fill-opacity="1"/>
<defs>
  <clipPath id="clip881">
    <rect x="320" y="0" width="1121" height="1000"/>
  </clipPath>
</defs>
<path clip-path="url(#clip880)" d="M246.72 834.31 L1552.76 834.31 L1552.76 47.2441 L246.72 47.2441  Z" fill="#ffffff" fill-rule="evenodd" fill-opacity="1"/>
<defs>
  <clipPath id="clip882">
    <rect x="246" y="47" width="1307" height="788"/>
  </clipPath>
</defs>
<polyline clip-path="url(#clip882)" style="stroke:#000000; stroke-linecap:round; stroke-linejoin:round; stroke-width:2; stroke-opacity:0.1; fill:none" points="283.683,834.31 283.683,47.2441 "/>
<polyline clip-path="url(#clip882)" style="stroke:#000000; stroke-linecap:round; stroke-linejoin:round; stroke-width:2; stroke-opacity:0.1; fill:none" points="577.828,834.31 577.828,47.2441 "/>
<polyline clip-path="url(#clip882)" style="stroke:#000000; stroke-linecap:round; stroke-linejoin:round; stroke-width:2; stroke-opacity:0.1; fill:none" points="871.972,834.31 871.972,47.2441 "/>
<polyline clip-path="url(#clip882)" style="stroke:#000000; stroke-linecap:round; stroke-linejoin:round; stroke-width:2; stroke-opacity:0.1; fill:none" points="1166.12,834.31 1166.12,47.2441 "/>
<polyline clip-path="url(#clip882)" style="stroke:#000000; stroke-linecap:round; stroke-linejoin:round; stroke-width:2; stroke-opacity:0.1; fill:none" points="1460.26,834.31 1460.26,47.2441 "/>
<polyline clip-path="url(#clip882)" style="stroke:#000000; stroke-linecap:round; stroke-linejoin:round; stroke-width:2; stroke-opacity:0.1; fill:none" points="246.72,834.31 1552.76,834.31 "/>
<polyline clip-path="url(#clip882)" style="stroke:#000000; stroke-linecap:round; stroke-linejoin:round; stroke-width:2; stroke-opacity:0.1; fill:none" points="246.72,676.897 1552.76,676.897 "/>
<polyline clip-path="url(#clip882)" style="stroke:#000000; stroke-linecap:round; stroke-linejoin:round; stroke-width:2; stroke-opacity:0.1; fill:none" points="246.72,519.484 1552.76,519.484 "/>
<polyline clip-path="url(#clip882)" style="stroke:#000000; stroke-linecap:round; stroke-linejoin:round; stroke-width:2; stroke-opacity:0.1; fill:none" points="246.72,362.07 1552.76,362.07 "/>
<polyline clip-path="url(#clip882)" style="stroke:#000000; stroke-linecap:round; stroke-linejoin:round; stroke-width:2; stroke-opacity:0.1; fill:none" points="246.72,204.657 1552.76,204.657 "/>
<polyline clip-path="url(#clip882)" style="stroke:#000000; stroke-linecap:round; stroke-linejoin:round; stroke-width:2; stroke-opacity:0.1; fill:none" points="246.72,47.2441 1552.76,47.2441 "/>
<polyline clip-path="url(#clip880)" style="stroke:#000000; stroke-linecap:round; stroke-linejoin:round; stroke-width:4; stroke-opacity:1; fill:none" points="246.72,834.31 1552.76,834.31 "/>
<polyline clip-path="url(#clip880)" style="stroke:#000000; stroke-linecap:round; stroke-linejoin:round; stroke-width:4; stroke-opacity:1; fill:none" points="283.683,834.31 283.683,815.412 "/>
<polyline clip-path="url(#clip880)" style="stroke:#000000; stroke-linecap:round; stroke-linejoin:round; stroke-width:4; stroke-opacity:1; fill:none" points="577.828,834.31 577.828,815.412 "/>
<polyline clip-path="url(#clip880)" style="stroke:#000000; stroke-linecap:round; stroke-linejoin:round; stroke-width:4; stroke-opacity:1; fill:none" points="871.972,834.31 871.972,815.412 "/>
<polyline clip-path="url(#clip880)" style="stroke:#000000; stroke-linecap:round; stroke-linejoin:round; stroke-width:4; stroke-opacity:1; fill:none" points="1166.12,834.31 1166.12,815.412 "/>
<polyline clip-path="url(#clip880)" style="stroke:#000000; stroke-linecap:round; stroke-linejoin:round; stroke-width:4; stroke-opacity:1; fill:none" points="1460.26,834.31 1460.26,815.412 "/>
<path clip-path="url(#clip880)" d="M283.683 858.829 Q280.072 858.829 278.244 862.393 Q276.438 865.935 276.438 873.065 Q276.438 880.171 278.244 883.736 Q280.072 887.277 283.683 887.277 Q287.318 887.277 289.123 883.736 Q290.952 880.171 290.952 873.065 Q290.952 865.935 289.123 862.393 Q287.318 858.829 283.683 858.829 M283.683 855.125 Q289.494 855.125 292.549 859.731 Q295.628 864.315 295.628 873.065 Q295.628 881.791 292.549 886.398 Q289.494 890.981 283.683 890.981 Q277.873 890.981 274.795 886.398 Q271.739 881.791 271.739 873.065 Q271.739 864.315 274.795 859.731 Q277.873 855.125 283.683 855.125 Z" fill="#000000" fill-rule="nonzero" fill-opacity="1" /><path clip-path="url(#clip880)" d="M557.099 886.375 L573.418 886.375 L573.418 890.31 L551.474 890.31 L551.474 886.375 Q554.136 883.62 558.719 878.99 Q563.326 874.338 564.506 872.995 Q566.751 870.472 567.631 868.736 Q568.534 866.977 568.534 865.287 Q568.534 862.532 566.589 860.796 Q564.668 859.06 561.566 859.06 Q559.367 859.06 556.914 859.824 Q554.483 860.588 551.705 862.139 L551.705 857.417 Q554.529 856.282 556.983 855.704 Q559.437 855.125 561.474 855.125 Q566.844 855.125 570.039 857.81 Q573.233 860.495 573.233 864.986 Q573.233 867.116 572.423 869.037 Q571.636 870.935 569.529 873.528 Q568.951 874.199 565.849 877.416 Q562.747 880.611 557.099 886.375 Z" fill="#000000" fill-rule="nonzero" fill-opacity="1" /><path clip-path="url(#clip880)" d="M583.279 855.75 L601.636 855.75 L601.636 859.685 L587.562 859.685 L587.562 868.157 Q588.58 867.81 589.599 867.648 Q590.617 867.463 591.636 867.463 Q597.423 867.463 600.802 870.634 Q604.182 873.805 604.182 879.222 Q604.182 884.801 600.71 887.902 Q597.237 890.981 590.918 890.981 Q588.742 890.981 586.474 890.611 Q584.228 890.24 581.821 889.5 L581.821 884.801 Q583.904 885.935 586.126 886.49 Q588.349 887.046 590.825 887.046 Q594.83 887.046 597.168 884.94 Q599.506 882.833 599.506 879.222 Q599.506 875.611 597.168 873.504 Q594.83 871.398 590.825 871.398 Q588.95 871.398 587.075 871.815 Q585.224 872.231 583.279 873.111 L583.279 855.75 Z" fill="#000000" fill-rule="nonzero" fill-opacity="1" /><path clip-path="url(#clip880)" d="M846.671 855.75 L865.028 855.75 L865.028 859.685 L850.954 859.685 L850.954 868.157 Q851.972 867.81 852.991 867.648 Q854.009 867.463 855.028 867.463 Q860.815 867.463 864.194 870.634 Q867.574 873.805 867.574 879.222 Q867.574 884.801 864.102 887.902 Q860.63 890.981 854.31 890.981 Q852.134 890.981 849.866 890.611 Q847.621 890.24 845.213 889.5 L845.213 884.801 Q847.296 885.935 849.519 886.49 Q851.741 887.046 854.218 887.046 Q858.222 887.046 860.56 884.94 Q862.898 882.833 862.898 879.222 Q862.898 875.611 860.56 873.504 Q858.222 871.398 854.218 871.398 Q852.343 871.398 850.468 871.815 Q848.616 872.231 846.671 873.111 L846.671 855.75 Z" fill="#000000" fill-rule="nonzero" fill-opacity="1" /><path clip-path="url(#clip880)" d="M886.787 858.829 Q883.176 858.829 881.347 862.393 Q879.542 865.935 879.542 873.065 Q879.542 880.171 881.347 883.736 Q883.176 887.277 886.787 887.277 Q890.421 887.277 892.227 883.736 Q894.055 880.171 894.055 873.065 Q894.055 865.935 892.227 862.393 Q890.421 858.829 886.787 858.829 M886.787 855.125 Q892.597 855.125 895.653 859.731 Q898.731 864.315 898.731 873.065 Q898.731 881.791 895.653 886.398 Q892.597 890.981 886.787 890.981 Q880.977 890.981 877.898 886.398 Q874.843 881.791 874.843 873.065 Q874.843 864.315 877.898 859.731 Q880.977 855.125 886.787 855.125 Z" fill="#000000" fill-rule="nonzero" fill-opacity="1" /><path clip-path="url(#clip880)" d="M1139.97 855.75 L1162.19 855.75 L1162.19 857.741 L1149.65 890.31 L1144.76 890.31 L1156.57 859.685 L1139.97 859.685 L1139.97 855.75 Z" fill="#000000" fill-rule="nonzero" fill-opacity="1" /><path clip-path="url(#clip880)" d="M1171.36 855.75 L1189.72 855.75 L1189.72 859.685 L1175.64 859.685 L1175.64 868.157 Q1176.66 867.81 1177.68 867.648 Q1178.7 867.463 1179.72 867.463 Q1185.5 867.463 1188.88 870.634 Q1192.26 873.805 1192.26 879.222 Q1192.26 884.801 1188.79 887.902 Q1185.32 890.981 1179 890.981 Q1176.82 890.981 1174.55 890.611 Q1172.31 890.24 1169.9 889.5 L1169.9 884.801 Q1171.98 885.935 1174.21 886.49 Q1176.43 887.046 1178.91 887.046 Q1182.91 887.046 1185.25 884.94 Q1187.59 882.833 1187.59 879.222 Q1187.59 875.611 1185.25 873.504 Q1182.91 871.398 1178.91 871.398 Q1177.03 871.398 1175.16 871.815 Q1173.3 872.231 1171.36 873.111 L1171.36 855.75 Z" fill="#000000" fill-rule="nonzero" fill-opacity="1" /><path clip-path="url(#clip880)" d="M1419.87 886.375 L1427.51 886.375 L1427.51 860.009 L1419.2 861.676 L1419.2 857.417 L1427.46 855.75 L1432.14 855.75 L1432.14 886.375 L1439.78 886.375 L1439.78 890.31 L1419.87 890.31 L1419.87 886.375 Z" fill="#000000" fill-rule="nonzero" fill-opacity="1" /><path clip-path="url(#clip880)" d="M1459.22 858.829 Q1455.61 858.829 1453.78 862.393 Q1451.97 865.935 1451.97 873.065 Q1451.97 880.171 1453.78 883.736 Q1455.61 887.277 1459.22 887.277 Q1462.85 887.277 1464.66 883.736 Q1466.49 880.171 1466.49 873.065 Q1466.49 865.935 1464.66 862.393 Q1462.85 858.829 1459.22 858.829 M1459.22 855.125 Q1465.03 855.125 1468.09 859.731 Q1471.16 864.315 1471.16 873.065 Q1471.16 881.791 1468.09 886.398 Q1465.03 890.981 1459.22 890.981 Q1453.41 890.981 1450.33 886.398 Q1447.28 881.791 1447.28 873.065 Q1447.28 864.315 1450.33 859.731 Q1453.41 855.125 1459.22 855.125 Z" fill="#000000" fill-rule="nonzero" fill-opacity="1" /><path clip-path="url(#clip880)" d="M1489.38 858.829 Q1485.77 858.829 1483.94 862.393 Q1482.14 865.935 1482.14 873.065 Q1482.14 880.171 1483.94 883.736 Q1485.77 887.277 1489.38 887.277 Q1493.02 887.277 1494.82 883.736 Q1496.65 880.171 1496.65 873.065 Q1496.65 865.935 1494.82 862.393 Q1493.02 858.829 1489.38 858.829 M1489.38 855.125 Q1495.19 855.125 1498.25 859.731 Q1501.33 864.315 1501.33 873.065 Q1501.33 881.791 1498.25 886.398 Q1495.19 890.981 1489.38 890.981 Q1483.57 890.981 1480.49 886.398 Q1477.44 881.791 1477.44 873.065 Q1477.44 864.315 1480.49 859.731 Q1483.57 855.125 1489.38 855.125 Z" fill="#000000" fill-rule="nonzero" fill-opacity="1" /><path clip-path="url(#clip880)" d="M838.898 921.404 L838.898 931.526 L850.961 931.526 L850.961 936.077 L838.898 936.077 L838.898 955.429 Q838.898 959.79 840.075 961.031 Q841.285 962.272 844.945 962.272 L850.961 962.272 L850.961 967.174 L844.945 967.174 Q838.166 967.174 835.588 964.659 Q833.01 962.113 833.01 955.429 L833.01 936.077 L828.713 936.077 L828.713 931.526 L833.01 931.526 L833.01 921.404 L838.898 921.404 Z" fill="#000000" fill-rule="nonzero" fill-opacity="1" /><path clip-path="url(#clip880)" d="M858.663 931.526 L864.52 931.526 L864.52 967.174 L858.663 967.174 L858.663 931.526 M858.663 917.649 L864.52 917.649 L864.52 925.065 L858.663 925.065 L858.663 917.649 Z" fill="#000000" fill-rule="nonzero" fill-opacity="1" /><path clip-path="url(#clip880)" d="M904.528 938.369 Q906.724 934.422 909.78 932.544 Q912.835 930.667 916.973 930.667 Q922.543 930.667 925.567 934.581 Q928.591 938.465 928.591 945.658 L928.591 967.174 L922.702 967.174 L922.702 945.849 Q922.702 940.724 920.888 938.242 Q919.074 935.759 915.35 935.759 Q910.798 935.759 908.157 938.783 Q905.515 941.807 905.515 947.026 L905.515 967.174 L899.627 967.174 L899.627 945.849 Q899.627 940.693 897.812 938.242 Q895.998 935.759 892.211 935.759 Q887.723 935.759 885.081 938.815 Q882.439 941.838 882.439 947.026 L882.439 967.174 L876.551 967.174 L876.551 931.526 L882.439 931.526 L882.439 937.064 Q884.444 933.786 887.245 932.226 Q890.046 930.667 893.897 930.667 Q897.781 930.667 900.486 932.64 Q903.223 934.613 904.528 938.369 Z" fill="#000000" fill-rule="nonzero" fill-opacity="1" /><path clip-path="url(#clip880)" d="M970.763 947.886 L970.763 950.75 L943.836 950.75 Q944.218 956.798 947.465 959.981 Q950.743 963.132 956.568 963.132 Q959.942 963.132 963.093 962.304 Q966.276 961.477 969.395 959.821 L969.395 965.36 Q966.244 966.696 962.934 967.397 Q959.623 968.097 956.218 968.097 Q947.688 968.097 942.691 963.132 Q937.725 958.166 937.725 949.7 Q937.725 940.947 942.436 935.823 Q947.178 930.667 955.199 930.667 Q962.392 930.667 966.562 935.313 Q970.763 939.929 970.763 947.886 M964.907 946.167 Q964.843 941.361 962.202 938.496 Q959.592 935.632 955.263 935.632 Q950.361 935.632 947.401 938.401 Q944.473 941.17 944.027 946.199 L964.907 946.167 Z" fill="#000000" fill-rule="nonzero" fill-opacity="1" /><polyline clip-path="url(#clip880)" style="stroke:#000000; stroke-linecap:round; stroke-linejoin:round; stroke-width:4; stroke-opacity:1; fill:none" points="246.72,834.31 246.72,47.2441 "/>
<polyline clip-path="url(#clip880)" style="stroke:#000000; stroke-linecap:round; stroke-linejoin:round; stroke-width:4; stroke-opacity:1; fill:none" points="246.72,834.31 265.618,834.31 "/>
<polyline clip-path="url(#clip880)" style="stroke:#000000; stroke-linecap:round; stroke-linejoin:round; stroke-width:4; stroke-opacity:1; fill:none" points="246.72,676.897 265.618,676.897 "/>
<polyline clip-path="url(#clip880)" style="stroke:#000000; stroke-linecap:round; stroke-linejoin:round; stroke-width:4; stroke-opacity:1; fill:none" points="246.72,519.484 265.618,519.484 "/>
<polyline clip-path="url(#clip880)" style="stroke:#000000; stroke-linecap:round; stroke-linejoin:round; stroke-width:4; stroke-opacity:1; fill:none" points="246.72,362.07 265.618,362.07 "/>
<polyline clip-path="url(#clip880)" style="stroke:#000000; stroke-linecap:round; stroke-linejoin:round; stroke-width:4; stroke-opacity:1; fill:none" points="246.72,204.657 265.618,204.657 "/>
<polyline clip-path="url(#clip880)" style="stroke:#000000; stroke-linecap:round; stroke-linejoin:round; stroke-width:4; stroke-opacity:1; fill:none" points="246.72,47.2441 265.618,47.2441 "/>
<path clip-path="url(#clip880)" d="M115.776 834.761 L145.452 834.761 L145.452 838.696 L115.776 838.696 L115.776 834.761 Z" fill="#000000" fill-rule="nonzero" fill-opacity="1" /><path clip-path="url(#clip880)" d="M156.355 847.655 L163.994 847.655 L163.994 821.289 L155.683 822.956 L155.683 818.697 L163.947 817.03 L168.623 817.03 L168.623 847.655 L176.262 847.655 L176.262 851.59 L156.355 851.59 L156.355 847.655 Z" fill="#000000" fill-rule="nonzero" fill-opacity="1" /><path clip-path="url(#clip880)" d="M185.706 845.71 L190.591 845.71 L190.591 851.59 L185.706 851.59 L185.706 845.71 Z" fill="#000000" fill-rule="nonzero" fill-opacity="1" /><path clip-path="url(#clip880)" d="M210.776 820.109 Q207.165 820.109 205.336 823.673 Q203.53 827.215 203.53 834.345 Q203.53 841.451 205.336 845.016 Q207.165 848.557 210.776 848.557 Q214.41 848.557 216.216 845.016 Q218.044 841.451 218.044 834.345 Q218.044 827.215 216.216 823.673 Q214.41 820.109 210.776 820.109 M210.776 816.405 Q216.586 816.405 219.641 821.011 Q222.72 825.595 222.72 834.345 Q222.72 843.071 219.641 847.678 Q216.586 852.261 210.776 852.261 Q204.966 852.261 201.887 847.678 Q198.831 843.071 198.831 834.345 Q198.831 825.595 201.887 821.011 Q204.966 816.405 210.776 816.405 Z" fill="#000000" fill-rule="nonzero" fill-opacity="1" /><path clip-path="url(#clip880)" d="M115.869 677.348 L145.545 677.348 L145.545 681.283 L115.869 681.283 L115.869 677.348 Z" fill="#000000" fill-rule="nonzero" fill-opacity="1" /><path clip-path="url(#clip880)" d="M165.637 662.695 Q162.026 662.695 160.197 666.26 Q158.392 669.802 158.392 676.931 Q158.392 684.038 160.197 687.603 Q162.026 691.144 165.637 691.144 Q169.271 691.144 171.077 687.603 Q172.906 684.038 172.906 676.931 Q172.906 669.802 171.077 666.26 Q169.271 662.695 165.637 662.695 M165.637 658.992 Q171.447 658.992 174.503 663.598 Q177.581 668.181 177.581 676.931 Q177.581 685.658 174.503 690.265 Q171.447 694.848 165.637 694.848 Q159.827 694.848 156.748 690.265 Q153.693 685.658 153.693 676.931 Q153.693 668.181 156.748 663.598 Q159.827 658.992 165.637 658.992 Z" fill="#000000" fill-rule="nonzero" fill-opacity="1" /><path clip-path="url(#clip880)" d="M185.799 688.297 L190.683 688.297 L190.683 694.177 L185.799 694.177 L185.799 688.297 Z" fill="#000000" fill-rule="nonzero" fill-opacity="1" /><path clip-path="url(#clip880)" d="M210.868 677.765 Q207.535 677.765 205.614 679.547 Q203.716 681.33 203.716 684.455 Q203.716 687.58 205.614 689.362 Q207.535 691.144 210.868 691.144 Q214.202 691.144 216.123 689.362 Q218.044 687.556 218.044 684.455 Q218.044 681.33 216.123 679.547 Q214.225 677.765 210.868 677.765 M206.192 675.774 Q203.183 675.033 201.493 672.973 Q199.827 670.913 199.827 667.95 Q199.827 663.806 202.767 661.399 Q205.729 658.992 210.868 658.992 Q216.03 658.992 218.97 661.399 Q221.91 663.806 221.91 667.95 Q221.91 670.913 220.22 672.973 Q218.553 675.033 215.567 675.774 Q218.947 676.561 220.822 678.853 Q222.72 681.144 222.72 684.455 Q222.72 689.478 219.641 692.163 Q216.586 694.848 210.868 694.848 Q205.151 694.848 202.072 692.163 Q199.017 689.478 199.017 684.455 Q199.017 681.144 200.915 678.853 Q202.813 676.561 206.192 675.774 M204.479 668.39 Q204.479 671.075 206.146 672.58 Q207.836 674.084 210.868 674.084 Q213.878 674.084 215.567 672.58 Q217.28 671.075 217.28 668.39 Q217.28 665.705 215.567 664.2 Q213.878 662.695 210.868 662.695 Q207.836 662.695 206.146 664.2 Q204.479 665.705 204.479 668.39 Z" fill="#000000" fill-rule="nonzero" fill-opacity="1" /><path clip-path="url(#clip880)" d="M115.614 519.935 L145.29 519.935 L145.29 523.87 L115.614 523.87 L115.614 519.935 Z" fill="#000000" fill-rule="nonzero" fill-opacity="1" /><path clip-path="url(#clip880)" d="M165.382 505.282 Q161.771 505.282 159.943 508.847 Q158.137 512.389 158.137 519.518 Q158.137 526.625 159.943 530.19 Q161.771 533.731 165.382 533.731 Q169.017 533.731 170.822 530.19 Q172.651 526.625 172.651 519.518 Q172.651 512.389 170.822 508.847 Q169.017 505.282 165.382 505.282 M165.382 501.579 Q171.193 501.579 174.248 506.185 Q177.327 510.768 177.327 519.518 Q177.327 528.245 174.248 532.852 Q171.193 537.435 165.382 537.435 Q159.572 537.435 156.494 532.852 Q153.438 528.245 153.438 519.518 Q153.438 510.768 156.494 506.185 Q159.572 501.579 165.382 501.579 Z" fill="#000000" fill-rule="nonzero" fill-opacity="1" /><path clip-path="url(#clip880)" d="M185.544 530.884 L190.429 530.884 L190.429 536.764 L185.544 536.764 L185.544 530.884 Z" fill="#000000" fill-rule="nonzero" fill-opacity="1" /><path clip-path="url(#clip880)" d="M211.192 517.62 Q208.044 517.62 206.192 519.773 Q204.364 521.926 204.364 525.676 Q204.364 529.402 206.192 531.578 Q208.044 533.731 211.192 533.731 Q214.341 533.731 216.169 531.578 Q218.021 529.402 218.021 525.676 Q218.021 521.926 216.169 519.773 Q214.341 517.62 211.192 517.62 M220.475 502.967 L220.475 507.227 Q218.716 506.393 216.91 505.954 Q215.128 505.514 213.368 505.514 Q208.739 505.514 206.285 508.639 Q203.854 511.764 203.507 518.083 Q204.873 516.069 206.933 515.004 Q208.993 513.916 211.47 513.916 Q216.679 513.916 219.688 517.088 Q222.72 520.236 222.72 525.676 Q222.72 531 219.572 534.217 Q216.424 537.435 211.192 537.435 Q205.197 537.435 202.026 532.852 Q198.855 528.245 198.855 519.518 Q198.855 511.324 202.743 506.463 Q206.632 501.579 213.183 501.579 Q214.942 501.579 216.725 501.926 Q218.53 502.273 220.475 502.967 Z" fill="#000000" fill-rule="nonzero" fill-opacity="1" /><path clip-path="url(#clip880)" d="M115.29 362.522 L144.966 362.522 L144.966 366.457 L115.29 366.457 L115.29 362.522 Z" fill="#000000" fill-rule="nonzero" fill-opacity="1" /><path clip-path="url(#clip880)" d="M165.058 347.869 Q161.447 347.869 159.619 351.434 Q157.813 354.976 157.813 362.105 Q157.813 369.212 159.619 372.776 Q161.447 376.318 165.058 376.318 Q168.693 376.318 170.498 372.776 Q172.327 369.212 172.327 362.105 Q172.327 354.976 170.498 351.434 Q168.693 347.869 165.058 347.869 M165.058 344.165 Q170.869 344.165 173.924 348.772 Q177.003 353.355 177.003 362.105 Q177.003 370.832 173.924 375.438 Q170.869 380.022 165.058 380.022 Q159.248 380.022 156.17 375.438 Q153.114 370.832 153.114 362.105 Q153.114 353.355 156.17 348.772 Q159.248 344.165 165.058 344.165 Z" fill="#000000" fill-rule="nonzero" fill-opacity="1" /><path clip-path="url(#clip880)" d="M185.22 373.471 L190.105 373.471 L190.105 379.35 L185.22 379.35 L185.22 373.471 Z" fill="#000000" fill-rule="nonzero" fill-opacity="1" /><path clip-path="url(#clip880)" d="M213.137 348.864 L201.331 367.313 L213.137 367.313 L213.137 348.864 M211.91 344.79 L217.79 344.79 L217.79 367.313 L222.72 367.313 L222.72 371.202 L217.79 371.202 L217.79 379.35 L213.137 379.35 L213.137 371.202 L197.535 371.202 L197.535 366.688 L211.91 344.79 Z" fill="#000000" fill-rule="nonzero" fill-opacity="1" /><path clip-path="url(#clip880)" d="M117.373 205.109 L147.049 205.109 L147.049 209.044 L117.373 209.044 L117.373 205.109 Z" fill="#000000" fill-rule="nonzero" fill-opacity="1" /><path clip-path="url(#clip880)" d="M167.142 190.456 Q163.531 190.456 161.702 194.021 Q159.896 197.562 159.896 204.692 Q159.896 211.798 161.702 215.363 Q163.531 218.905 167.142 218.905 Q170.776 218.905 172.582 215.363 Q174.41 211.798 174.41 204.692 Q174.41 197.562 172.582 194.021 Q170.776 190.456 167.142 190.456 M167.142 186.752 Q172.952 186.752 176.007 191.359 Q179.086 195.942 179.086 204.692 Q179.086 213.419 176.007 218.025 Q172.952 222.609 167.142 222.609 Q161.332 222.609 158.253 218.025 Q155.197 213.419 155.197 204.692 Q155.197 195.942 158.253 191.359 Q161.332 186.752 167.142 186.752 Z" fill="#000000" fill-rule="nonzero" fill-opacity="1" /><path clip-path="url(#clip880)" d="M187.304 216.058 L192.188 216.058 L192.188 221.937 L187.304 221.937 L187.304 216.058 Z" fill="#000000" fill-rule="nonzero" fill-opacity="1" /><path clip-path="url(#clip880)" d="M206.401 218.002 L222.72 218.002 L222.72 221.937 L200.776 221.937 L200.776 218.002 Q203.438 215.247 208.021 210.618 Q212.628 205.965 213.808 204.623 Q216.054 202.099 216.933 200.363 Q217.836 198.604 217.836 196.914 Q217.836 194.16 215.891 192.424 Q213.97 190.687 210.868 190.687 Q208.669 190.687 206.216 191.451 Q203.785 192.215 201.007 193.766 L201.007 189.044 Q203.831 187.91 206.285 187.331 Q208.739 186.752 210.776 186.752 Q216.146 186.752 219.341 189.437 Q222.535 192.123 222.535 196.613 Q222.535 198.743 221.725 200.664 Q220.938 202.562 218.831 205.155 Q218.253 205.826 215.151 209.044 Q212.049 212.238 206.401 218.002 Z" fill="#000000" fill-rule="nonzero" fill-opacity="1" /><path clip-path="url(#clip880)" d="M165.545 33.0428 Q161.933 33.0428 160.105 36.6076 Q158.299 40.1492 158.299 47.2788 Q158.299 54.3853 160.105 57.9501 Q161.933 61.4917 165.545 61.4917 Q169.179 61.4917 170.984 57.9501 Q172.813 54.3853 172.813 47.2788 Q172.813 40.1492 170.984 36.6076 Q169.179 33.0428 165.545 33.0428 M165.545 29.3391 Q171.355 29.3391 174.41 33.9456 Q177.489 38.5289 177.489 47.2788 Q177.489 56.0056 174.41 60.6121 Q171.355 65.1954 165.545 65.1954 Q159.734 65.1954 156.656 60.6121 Q153.6 56.0056 153.6 47.2788 Q153.6 38.5289 156.656 33.9456 Q159.734 29.3391 165.545 29.3391 Z" fill="#000000" fill-rule="nonzero" fill-opacity="1" /><path clip-path="url(#clip880)" d="M185.706 58.6445 L190.591 58.6445 L190.591 64.5241 L185.706 64.5241 L185.706 58.6445 Z" fill="#000000" fill-rule="nonzero" fill-opacity="1" /><path clip-path="url(#clip880)" d="M210.776 33.0428 Q207.165 33.0428 205.336 36.6076 Q203.53 40.1492 203.53 47.2788 Q203.53 54.3853 205.336 57.9501 Q207.165 61.4917 210.776 61.4917 Q214.41 61.4917 216.216 57.9501 Q218.044 54.3853 218.044 47.2788 Q218.044 40.1492 216.216 36.6076 Q214.41 33.0428 210.776 33.0428 M210.776 29.3391 Q216.586 29.3391 219.641 33.9456 Q222.72 38.5289 222.72 47.2788 Q222.72 56.0056 219.641 60.6121 Q216.586 65.1954 210.776 65.1954 Q204.966 65.1954 201.887 60.6121 Q198.831 56.0056 198.831 47.2788 Q198.831 38.5289 201.887 33.9456 Q204.966 29.3391 210.776 29.3391 Z" fill="#000000" fill-rule="nonzero" fill-opacity="1" /><path clip-path="url(#clip880)" d="M56.6002 500.328 L27.5726 491.353 L27.5726 485.942 L56.6002 494.917 L85.6279 485.942 L85.6279 491.353 L56.6002 500.328 Z" fill="#000000" fill-rule="nonzero" fill-opacity="1" /><path clip-path="url(#clip880)" d="M46.0332 460.765 Q46.0332 465.603 49.5343 468.213 Q53.1946 470.95 59.242 470.95 Q65.6395 470.95 69.3317 468.245 Q72.9919 465.508 72.9919 460.765 Q72.9919 456.086 69.2998 453.349 Q65.6077 450.612 59.242 450.612 Q53.4174 450.612 49.5343 453.349 Q46.0332 455.864 46.0332 460.765 M41.3862 460.765 L41.3862 441.318 L47.2427 441.318 L47.2427 447.875 Q52.2079 444.405 59.242 444.405 Q67.9949 444.405 72.9601 448.766 Q77.9572 453.126 77.9572 460.765 Q77.9572 468.436 72.9601 472.765 Q67.9949 477.125 59.242 477.125 Q50.4255 477.125 45.4921 472.765 Q41.3862 469.168 41.3862 460.765 Z" fill="#000000" fill-rule="nonzero" fill-opacity="1" /><path clip-path="url(#clip880)" d="M41.3862 403.633 L58.7328 416.524 L77.0342 402.965 L77.0342 409.871 L63.0296 420.248 L77.0342 430.624 L77.0342 437.53 L58.3826 423.685 L41.3862 436.353 L41.3862 429.446 L54.0858 419.993 L41.3862 410.54 L41.3862 403.633 Z" fill="#000000" fill-rule="nonzero" fill-opacity="1" /><path clip-path="url(#clip880)" d="M56.6002 381.226 L85.6279 390.201 L85.6279 395.612 L56.6002 386.637 L27.5726 395.612 L27.5726 390.201 L56.6002 381.226 Z" fill="#000000" fill-rule="nonzero" fill-opacity="1" /><polyline clip-path="url(#clip882)" style="stroke:#009af9; stroke-linecap:round; stroke-linejoin:round; stroke-width:4; stroke-opacity:1; fill:none" points="283.683,47.2441 284.916,47.2441 286.148,47.5274 287.38,48.7731 288.612,51.6646 289.844,56.5352 291.076,63.2374 292.308,71.2469 293.54,79.8887 294.772,88.5534 296.005,96.8276 297.237,104.529 298.469,111.669 299.701,118.391 300.933,124.894 302.165,131.383 303.397,138.031 304.629,144.958 305.861,152.226 307.093,159.836 308.326,167.738 309.558,175.834 310.79,183.99 312.022,192.046 313.254,199.829 314.486,207.164 315.718,213.889 316.95,219.869 318.182,225.005 319.415,229.246 320.647,232.598 321.879,235.123 323.111,236.943 324.343,238.236 325.575,239.235 326.807,240.219 328.039,241.503 329.271,243.433 330.504,246.371 331.736,250.681 332.968,256.706 334.2,264.748 335.432,275.03 336.664,287.662 337.896,302.604 339.128,319.626 340.36,338.287 341.593,357.925 342.825,377.687 344.057,396.587 345.289,413.608 346.521,427.828 347.753,438.562 348.985,445.482 350.217,448.697 351.449,448.752 352.682,446.554 353.914,443.22 355.146,439.877 356.378,437.473 357.61,436.626 358.842,437.56 360.074,440.121 361.306,443.878 362.538,448.26 363.771,452.698 365.003,456.734 366.235,460.088 367.467,462.664 368.699,464.527 369.931,465.849 371.163,466.851 372.395,467.761 373.627,468.771 374.859,470.026 376.092,471.612 377.324,473.564 378.556,475.869 379.788,478.475 381.02,481.302 382.252,484.247 383.484,487.191 384.716,490.004 385.948,492.555 387.181,494.711 388.413,496.352 389.645,497.374 390.877,497.698 392.109,497.278 393.341,496.108 394.573,494.224 395.805,491.712 397.037,488.702 398.27,485.378 399.502,481.965 400.734,478.731 401.966,475.981 403.198,474.047 404.43,473.277 405.662,474.019 406.894,476.601 408.126,481.301 409.359,488.315 410.591,497.72 411.823,509.428 413.055,523.16 414.287,538.417 415.519,554.489 416.751,570.491 417.983,585.438 419.215,598.357 420.448,608.428 421.68,615.119 422.912,618.298 424.144,618.285 425.376,615.817 426.608,611.93 427.84,607.77 429.072,604.385 430.304,602.534 431.537,602.566 432.769,604.407 434.001,607.625 435.233,611.581 436.465,615.592 437.697,619.078 438.929,621.659 440.161,623.187 441.393,623.723 442.626,623.476 443.858,622.732 445.09,621.783 446.322,620.884 447.554,620.221 448.786,619.904 450.018,619.973 451.25,620.412 452.482,621.16 453.714,622.128 454.947,623.208 456.179,624.284 457.411,625.235 458.643,625.941 459.875,626.286 461.107,626.164 462.339,625.482 463.571,624.165 464.803,622.162 466.036,619.454 467.268,616.052 468.5,612.01 469.732,607.421 470.964,602.423 472.196,597.197 473.428,591.966 474.66,586.992 475.892,582.573 477.125,579.034 478.357,576.712 479.589,575.949 480.821,577.061 482.053,580.316 483.285,585.893 484.517,593.851 485.749,604.079 486.981,616.271 488.214,629.906 489.446,644.251 490.678,658.413 491.91,671.414 493.142,682.314 494.374,690.349 495.606,695.073 496.838,696.459 498.07,694.932 499.303,691.322 500.535,686.719 501.767,682.279 502.999,678.993 504.231,677.515 505.463,678.053 506.695,680.376 507.927,683.919 509.159,687.945 510.392,691.726 511.624,694.69 512.856,696.507 514.088,697.106 515.32,696.631 516.552,695.368 517.784,693.657 519.016,691.824 520.248,690.134 521.48,688.762 522.713,687.799 523.945,687.257 525.177,687.089 526.409,687.212 527.641,687.513 528.873,687.873 530.105,688.167 531.337,688.273 532.569,688.075 533.802,687.466 535.034,686.353 536.266,684.654 537.498,682.309 538.73,679.282 539.962,675.563 541.194,671.175 542.426,666.179 543.658,660.672 544.891,654.795 546.123,648.728 547.355,642.692 548.587,636.948 549.819,631.789 551.051,627.536 552.283,624.523 553.515,623.086 554.747,623.537 555.98,626.137 557.212,631.058 558.444,638.348 559.676,647.888 560.908,659.357 562.14,672.224 563.372,685.748 564.604,699.031 565.836,711.1 567.069,721.033 568.301,728.097 569.533,731.888 570.765,732.429 571.997,730.198 573.229,726.066 574.461,721.152 575.693,716.606 576.925,713.396 578.158,712.118 579.39,712.91 580.622,715.469 581.854,719.163 583.086,723.211 584.318,726.866 585.55,729.563 586.782,731.002 588.014,731.149 589.246,730.191 590.479,728.448 591.711,726.29 592.943,724.056 594.175,722.013 595.407,720.333 596.639,719.093 597.871,718.291 599.103,717.866 600.335,717.721 601.568,717.735 602.8,717.78 604.032,717.729 605.264,717.458 606.496,716.855 607.728,715.817 608.96,714.254 610.192,712.093 611.424,709.281 612.657,705.786 613.889,701.606 615.121,696.769 616.353,691.338 617.585,685.412 618.817,679.134 620.049,672.683 621.281,666.28 622.513,660.184 623.746,654.687 624.978,650.107 626.21,646.777 627.442,645.03 628.674,645.176 629.906,647.471 631.138,652.086 632.37,659.062 633.602,668.276 634.835,679.403 636.067,691.903 637.299,705.034 638.531,717.896 639.763,729.52 640.995,738.992 642.227,745.596 643.459,748.947 644.691,749.093 645.924,746.536 647.156,742.168 648.388,737.117 649.62,732.534 650.852,729.369 652.084,728.193 653.316,729.109 654.548,731.779 655.78,735.54 657.013,739.591 658.245,743.179 659.477,745.743 660.709,746.996 661.941,746.926 663.173,745.739 664.405,743.773 665.637,741.41 666.869,738.995 668.101,736.796 669.334,734.98 670.566,733.62 671.798,732.706 673.03,732.171 674.262,731.909 675.494,731.796 676.726,731.701 677.958,731.493 679.19,731.051 680.423,730.262 681.655,729.025 682.887,727.255 684.119,724.881 685.351,721.852 686.583,718.141 687.815,713.748 689.047,708.702 690.279,703.069 691.512,696.949 692.744,690.485 693.976,683.857 695.208,677.284 696.44,671.025 697.672,665.371 698.904,660.639 700.136,657.161 701.368,655.269 702.601,655.271 703.833,657.423 705.065,661.893 706.297,668.72 707.529,677.778 708.761,688.741 709.993,701.065 711.225,714.008 712.457,726.668 713.69,738.08 714.922,747.333 716.154,753.719 717.386,756.863 718.618,756.826 719.85,754.119 721.082,749.645 722.314,744.535 723.546,739.94 724.779,736.8 726.011,735.675 727.243,736.651 728.475,739.371 729.707,743.161 730.939,747.21 732.171,750.761 733.403,753.258 734.635,754.422 735.867,754.248 737.1,752.954 738.332,750.885 739.564,748.429 740.796,745.933 742.028,743.665 743.26,741.791 744.492,740.38 745.724,739.418 746.956,738.834 748.189,738.521 749.421,738.351 750.653,738.191 751.885,737.912 753.117,737.391 754.349,736.516 755.581,735.187 756.813,733.32 758.045,730.846 759.278,727.716 760.51,723.904 761.742,719.41 762.974,714.267 764.206,708.54 765.438,702.33 766.67,695.779 767.902,689.067 769.134,682.415 770.367,676.08 771.599,670.352 772.831,665.549 774.063,662.002 775.295,660.042 776.527,659.976 777.759,662.06 778.991,666.46 780.223,673.216 781.456,682.199 782.688,693.082 783.92,705.322 785.152,718.174 786.384,730.738 787.616,742.048 788.848,751.198 790.08,757.481 791.312,760.529 792.545,760.407 793.777,757.632 795.009,753.111 796.241,747.976 797.473,743.377 798.705,740.252 799.937,739.152 801.169,740.155 802.401,742.898 803.634,746.7 804.866,750.745 806.098,754.277 807.33,756.741 808.562,757.861 809.794,757.639 811.026,756.294 812.258,754.179 813.49,751.681 814.722,749.149 815.955,746.852 817.187,744.953 818.419,743.52 819.651,742.538 820.883,741.934 822.115,741.597 823.347,741.402 824.579,741.213 825.811,740.901 827.044,740.343 828.276,739.427 829.508,738.055 830.74,736.143 831.972,733.622 833.204,730.444 834.436,726.584 835.668,722.044 836.9,716.855 838.133,711.083 839.365,704.831 840.597,698.239 841.829,691.488 843.061,684.799 844.293,678.428 845.525,672.666 846.757,667.829 847.989,664.249 849.222,662.256 850.454,662.158 851.686,664.21 852.918,668.576 854.15,675.298 855.382,684.245 856.614,695.09 857.846,707.289 859.078,720.097 860.311,732.614 861.543,743.877 862.775,752.977 864.007,759.212 865.239,762.216 866.471,762.055 867.703,759.25 868.935,754.708 870.167,749.564 871.4,744.965 872.632,741.847 873.864,740.759 875.096,741.775 876.328,744.528 877.56,748.334 878.792,752.376 880.024,755.898 881.256,758.345 882.488,759.444 883.721,759.199 884.953,757.832 886.185,755.696 887.417,753.179 888.649,750.632 889.881,748.323 891.113,746.414 892.345,744.972 893.577,743.981 894.81,743.368 896.042,743.022 897.274,742.814 898.506,742.612 899.738,742.285 900.97,741.709 902.202,740.775 903.434,739.382 904.666,737.448 905.899,734.905 907.131,731.705 908.363,727.823 909.595,723.26 910.827,718.05 912.059,712.257 913.291,705.985 914.523,699.374 915.755,692.605 916.988,685.898 918.22,679.51 919.452,673.732 920.684,668.879 921.916,665.283 923.148,663.275 924.38,663.162 925.612,665.197 926.844,669.548 928.077,676.253 929.309,685.183 930.541,696.009 931.773,708.188 933.005,720.975 934.237,733.471 935.469,744.71 936.701,753.787 937.933,760 939.166,762.984 940.398,762.805 941.63,759.987 942.862,755.436 944.094,750.288 945.326,745.69 946.558,742.577 947.79,741.494 949.022,742.516 950.254,745.273 951.487,749.08 952.719,753.12 953.951,756.636 955.183,759.076 956.415,760.165 957.647,759.909 958.879,758.531 960.111,756.386 961.343,753.861 962.576,751.309 963.808,748.994 965.04,747.081 966.272,745.636 967.504,744.641 968.736,744.024 969.968,743.674 971.2,743.461 972.432,743.253 973.665,742.918 974.897,742.335 976.129,741.391 977.361,739.99 978.593,738.045 979.825,735.492 981.057,732.281 982.289,728.388 983.521,723.815 984.754,718.595 985.986,712.792 987.218,706.51 988.45,699.89 989.682,693.113 990.914,686.397 992.146,680.002 993.378,674.216 994.61,669.356 995.843,665.753 997.075,663.737 998.307,663.616 999.539,665.644 1000.77,669.987 1002,676.684 1003.24,685.605 1004.47,696.422 1005.7,708.592 1006.93,721.369 1008.16,733.854 1009.4,745.082 1010.63,754.149 1011.86,760.352 1013.09,763.326 1014.32,763.14 1015.56,760.316 1016.79,755.762 1018.02,750.613 1019.25,746.015 1020.48,742.904 1021.72,741.824 1022.95,742.849 1024.18,745.607 1025.41,749.414 1026.65,753.453 1027.88,756.966 1029.11,759.401 1030.34,760.486 1031.57,760.225 1032.81,758.843 1034.04,756.694 1035.27,754.166 1036.5,751.611 1037.73,749.295 1038.97,747.38 1040.2,745.934 1041.43,744.938 1042.66,744.32 1043.89,743.967 1045.13,743.753 1046.36,743.541 1047.59,743.203 1048.82,742.616 1050.06,741.668 1051.29,740.262 1052.52,738.313 1053.75,735.754 1054.98,732.538 1056.22,728.641 1057.45,724.063 1058.68,718.837 1059.91,713.03 1061.14,706.744 1062.38,700.12 1063.61,693.338 1064.84,686.619 1066.07,680.22 1067.3,674.43 1068.54,669.567 1069.77,665.96 1071,663.941 1072.23,663.817 1073.47,665.841 1074.7,670.18 1075.93,676.873 1077.16,685.79 1078.39,696.603 1079.63,708.768 1080.86,721.54 1082.09,734.02 1083.32,745.243 1084.55,754.305 1085.79,760.503 1087.02,763.473 1088.25,763.284 1089.48,760.458 1090.71,755.902 1091.95,750.753 1093.18,746.156 1094.41,743.046 1095.64,741.968 1096.88,742.993 1098.11,745.752 1099.34,749.559 1100.57,753.597 1101.8,757.108 1103.04,759.542 1104.27,760.624 1105.5,760.361 1106.73,758.977 1107.96,756.826 1109.2,754.298 1110.43,751.742 1111.66,749.425 1112.89,747.51 1114.13,746.063 1115.36,745.067 1116.59,744.448 1117.82,744.095 1119.05,743.879 1120.29,743.666 1121.52,743.327 1122.75,742.738 1123.98,741.788 1125.21,740.379 1126.45,738.428 1127.68,735.867 1128.91,732.649 1130.14,728.749 1131.37,724.169 1132.61,718.941 1133.84,713.132 1135.07,706.844 1136.3,700.217 1137.54,693.434 1138.77,686.713 1140,680.312 1141.23,674.521 1142.46,669.656 1143.7,666.048 1144.93,664.027 1146.16,663.901 1147.39,665.923 1148.62,670.261 1149.86,676.952 1151.09,685.867 1152.32,696.677 1153.55,708.84 1154.78,721.609 1156.02,734.087 1157.25,745.308 1158.48,754.367 1159.71,760.563 1160.95,763.532 1162.18,763.341 1163.41,760.514 1164.64,755.959 1165.87,750.81 1167.11,746.213 1168.34,743.104 1169.57,742.026 1170.8,743.052 1172.03,745.811 1173.27,749.617 1174.5,753.655 1175.73,757.165 1176.96,759.597 1178.19,760.679 1179.43,760.415 1180.66,759.03 1181.89,756.879 1183.12,754.35 1184.36,751.794 1185.59,749.477 1186.82,747.562 1188.05,746.115 1189.28,745.119 1190.52,744.5 1191.75,744.146 1192.98,743.93 1194.21,743.717 1195.44,743.376 1196.68,742.787 1197.91,741.836 1199.14,740.426 1200.37,738.474 1201.6,735.912 1202.84,732.693 1204.07,728.792 1205.3,724.211 1206.53,718.982 1207.77,713.172 1209,706.882 1210.23,700.255 1211.46,693.471 1212.69,686.75 1213.93,680.348 1215.16,674.556 1216.39,669.69 1217.62,666.081 1218.85,664.06 1220.09,663.933 1221.32,665.954 1222.55,670.291 1223.78,676.981 1225.01,685.894 1226.25,696.704 1227.48,708.865 1228.71,721.634 1229.94,734.11 1231.18,745.33 1232.41,754.389 1233.64,760.584 1234.87,763.551 1236.1,763.36 1237.34,760.533 1238.57,755.978 1239.8,750.829 1241.03,746.233 1242.26,743.124 1243.5,742.046 1244.73,743.072 1245.96,745.831 1247.19,749.637 1248.42,753.674 1249.66,757.184 1250.89,759.616 1252.12,760.696 1253.35,760.432 1254.59,759.048 1255.82,756.896 1257.05,754.367 1258.28,751.811 1259.51,749.494 1260.75,747.58 1261.98,746.132 1263.21,745.137 1264.44,744.517 1265.67,744.164 1266.91,743.947 1268.14,743.734 1269.37,743.393 1270.6,742.803 1271.84,741.852 1273.07,740.442 1274.3,738.489 1275.53,735.926 1276.76,732.707 1278,728.805 1279.23,724.223 1280.46,718.994 1281.69,713.184 1282.92,706.894 1284.16,700.267 1285.39,693.482 1286.62,686.76 1287.85,680.358 1289.08,674.566 1290.32,669.699 1291.55,666.09 1292.78,664.069 1294.01,663.941 1295.25,665.962 1296.48,670.299 1297.71,676.988 1298.94,685.901 1300.17,696.71 1301.41,708.871 1302.64,721.639 1303.87,734.114 1305.1,745.334 1306.33,754.392 1307.57,760.587 1308.8,763.554 1310.03,763.363 1311.26,760.536 1312.49,755.98 1313.73,750.832 1314.96,746.236 1316.19,743.127 1317.42,742.049 1318.66,743.075 1319.89,745.834 1321.12,749.64 1322.35,753.677 1323.58,757.187 1324.82,759.618 1326.05,760.698 1327.28,760.434 1328.51,759.049 1329.74,756.898 1330.98,754.369 1332.21,751.813 1333.44,749.496 1334.67,747.582 1335.9,746.135 1337.14,745.139 1338.37,744.519 1339.6,744.166 1340.83,743.949 1342.07,743.736 1343.3,743.395 1344.53,742.804 1345.76,741.853 1346.99,740.443 1348.23,738.49 1349.46,735.927 1350.69,732.707 1351.92,728.805 1353.15,724.224 1354.39,718.994 1355.62,713.184 1356.85,706.894 1358.08,700.266 1359.31,693.482 1360.55,686.76 1361.78,680.357 1363.01,674.565 1364.24,669.699 1365.48,666.089 1366.71,664.067 1367.94,663.94 1369.17,665.961 1370.4,670.297 1371.64,676.986 1372.87,685.899 1374.1,696.707 1375.33,708.868 1376.56,721.635 1377.8,734.111 1379.03,745.33 1380.26,754.388 1381.49,760.582 1382.72,763.55 1383.96,763.358 1385.19,760.531 1386.42,755.976 1387.65,750.827 1388.89,746.232 1390.12,743.123 1391.35,742.045 1392.58,743.071 1393.81,745.83 1395.05,749.636 1396.28,753.672 1397.51,757.182 1398.74,759.614 1399.97,760.694 1401.21,760.429 1402.44,759.045 1403.67,756.894 1404.9,754.365 1406.13,751.809 1407.37,749.492 1408.6,747.578 1409.83,746.131 1411.06,745.135 1412.3,744.515 1413.53,744.162 1414.76,743.945 1415.99,743.732 1417.22,743.391 1418.46,742.8 1419.69,741.849 1420.92,740.439 1422.15,738.485 1423.38,735.923 1424.62,732.703 1425.85,728.801 1427.08,724.219 1428.31,718.99 1429.54,713.179 1430.78,706.889 1432.01,700.261 1433.24,693.477 1434.47,686.755 1435.71,680.353 1436.94,674.56 1438.17,669.694 1439.4,666.084 1440.63,664.062 1441.87,663.935 1443.1,665.956 1444.33,670.291 1445.56,676.98 1446.79,685.893 1448.03,696.701 1449.26,708.862 1450.49,721.629 1451.72,734.104 1452.96,745.323 1454.19,754.381 1455.42,760.575 1456.65,763.542 1457.88,763.351 1459.12,760.524 1460.35,755.969 1461.58,750.821 1462.81,746.225 1464.04,743.116 1465.28,742.039 1466.51,743.064 1467.74,745.823 1468.97,749.629 1470.2,753.665 1471.44,757.175 1472.67,759.606 1473.9,760.687 1475.13,760.422 1476.37,759.038 1477.6,756.887 1478.83,754.358 1480.06,751.802 1481.29,749.485 1482.53,747.571 1483.76,746.124 1484.99,745.128 1486.22,744.509 1487.45,744.155 1488.69,743.939 1489.92,743.725 1491.15,743.384 1492.38,742.793 1493.61,741.842 1494.85,740.432 1496.08,738.479 1497.31,735.916 1498.54,732.696 1499.78,728.794 1501.01,724.212 1502.24,718.983 1503.47,713.172 1504.7,706.882 1505.94,700.255 1507.17,693.47 1508.4,686.748 1509.63,680.346 1510.86,674.554 1512.1,669.687 1513.33,666.078 1514.56,664.056 1515.79,663.928 "/>
<polyline clip-path="url(#clip882)" style="stroke:#e26f46; stroke-linecap:round; stroke-linejoin:round; stroke-width:4; stroke-opacity:1; fill:none" points="283.683,743.19 284.916,745.949 286.148,749.755 287.38,753.792 288.612,757.303 289.844,759.734 291.076,760.815 292.308,760.55 293.54,759.166 294.772,757.014 296.005,754.485 297.237,751.929 298.469,749.612 299.701,747.697 300.933,746.25 302.165,745.254 303.397,744.635 304.629,744.281 305.861,744.064 307.093,743.851 308.326,743.509 309.558,742.919 310.79,741.967 312.022,740.557 313.254,738.603 314.486,736.04 315.718,732.819 316.95,728.917 318.182,724.334 319.415,719.104 320.647,713.292 321.879,707.001 323.111,700.372 324.343,693.586 325.575,686.863 326.807,680.46 328.039,674.666 329.271,669.799 330.504,666.189 331.736,664.166 332.968,664.039 334.2,666.06 335.432,670.396 336.664,677.086 337.896,686 339.128,696.81 340.36,708.973 341.593,721.742 342.825,734.22 344.057,745.44 345.289,754.5 346.521,760.695 347.753,763.663 348.985,763.472 350.217,760.645 351.449,756.089 352.682,750.94 353.914,746.343 355.146,743.234 356.378,742.156 357.61,743.182 358.842,745.941 360.074,749.748 361.306,753.785 362.538,757.295 363.771,759.727 365.003,760.807 366.235,760.543 367.467,759.158 368.699,757.006 369.931,754.477 371.163,751.921 372.395,749.604 373.627,747.69 374.859,746.243 376.092,745.247 377.324,744.627 378.556,744.273 379.788,744.057 381.02,743.843 382.252,743.502 383.484,742.911 384.716,741.96 385.948,740.549 387.181,738.596 388.413,736.032 389.645,732.812 390.877,728.909 392.109,724.327 393.341,719.096 394.573,713.285 395.805,706.994 397.037,700.365 398.27,693.579 399.502,686.856 400.734,680.453 401.966,674.659 403.198,669.792 404.43,666.182 405.662,664.16 406.894,664.032 408.126,666.053 409.359,670.39 410.591,677.079 411.823,685.994 413.055,696.803 414.287,708.966 415.519,721.735 416.751,734.212 417.983,745.433 419.215,754.492 420.448,760.688 421.68,763.656 422.912,763.464 424.144,760.637 425.376,756.081 426.608,750.932 427.84,746.336 429.072,743.227 430.304,742.149 431.537,743.175 432.769,745.934 434.001,749.74 435.233,753.777 436.465,757.287 437.697,759.719 438.929,760.8 440.161,760.535 441.393,759.15 442.626,756.999 443.858,754.47 445.09,751.914 446.322,749.597 447.554,747.682 448.786,746.235 450.018,745.239 451.25,744.62 452.482,744.266 453.714,744.049 454.947,743.836 456.179,743.494 457.411,742.904 458.643,741.952 459.875,740.542 461.107,738.588 462.339,736.025 463.571,732.804 464.803,728.902 466.036,724.319 467.268,719.089 468.5,713.277 469.732,706.987 470.964,700.358 472.196,693.572 473.428,686.849 474.66,680.446 475.892,674.653 477.125,669.785 478.357,666.175 479.589,664.153 480.821,664.025 482.053,666.047 483.285,670.383 484.517,677.073 485.749,685.987 486.981,696.796 488.214,708.959 489.446,721.728 490.678,734.205 491.91,745.425 493.142,754.484 494.374,760.68 495.606,763.648 496.838,763.457 498.07,760.629 499.303,756.074 500.535,750.925 501.767,746.328 502.999,743.219 504.231,742.141 505.463,743.167 506.695,745.926 507.927,749.733 509.159,753.769 510.392,757.28 511.624,759.711 512.856,760.792 514.088,760.527 515.32,759.143 516.552,756.991 517.784,754.462 519.016,751.906 520.248,749.589 521.48,747.675 522.713,746.227 523.945,745.231 525.177,744.612 526.409,744.258 527.641,744.042 528.873,743.828 530.105,743.487 531.337,742.896 532.569,741.945 533.802,740.534 535.034,738.581 536.266,736.018 537.498,732.797 538.73,728.895 539.962,724.312 541.194,719.082 542.426,713.27 543.658,706.979 544.891,700.351 546.123,693.565 547.355,686.842 548.587,680.439 549.819,674.646 551.051,669.779 552.283,666.169 553.515,664.147 554.747,664.019 555.98,666.04 557.212,670.376 558.444,677.066 559.676,685.98 560.908,696.789 562.14,708.952 563.372,721.721 564.604,734.197 565.836,745.418 567.069,754.477 568.301,760.672 569.533,763.64 570.765,763.449 571.997,760.622 573.229,756.066 574.461,750.917 575.693,746.321 576.925,743.212 578.158,742.134 579.39,743.16 580.622,745.919 581.854,749.725 583.086,753.762 584.318,757.272 585.55,759.704 586.782,760.784 588.014,760.52 589.246,759.135 590.479,756.984 591.711,754.454 592.943,751.898 594.175,749.581 595.407,747.667 596.639,746.22 597.871,745.224 599.103,744.605 600.335,744.251 601.568,744.034 602.8,743.821 604.032,743.479 605.264,742.889 606.496,741.937 607.728,740.527 608.96,738.573 610.192,736.01 611.424,732.79 612.657,728.887 613.889,724.305 615.121,719.075 616.353,713.263 617.585,706.972 618.817,700.344 620.049,693.558 621.281,686.835 622.513,680.432 623.746,674.639 624.978,669.772 626.21,666.162 627.442,664.14 628.674,664.012 629.906,666.033 631.138,670.369 632.37,677.059 633.602,685.973 634.835,696.782 636.067,708.944 637.299,721.713 638.531,734.19 639.763,745.41 640.995,754.469 642.227,760.665 643.459,763.632 644.691,763.441 645.924,760.614 647.156,756.058 648.388,750.909 649.62,746.313 650.852,743.204 652.084,742.126 653.316,743.152 654.548,745.911 655.78,749.717 657.013,753.754 658.245,757.264 659.477,759.696 660.709,760.776 661.941,760.512 663.173,759.127 664.405,756.976 665.637,754.447 666.869,751.891 668.101,749.574 669.334,747.659 670.566,746.212 671.798,745.216 673.03,744.597 674.262,744.243 675.494,744.027 676.726,743.813 677.958,743.472 679.19,742.881 680.423,741.93 681.655,740.519 682.887,738.566 684.119,736.003 685.351,732.782 686.583,728.88 687.815,724.297 689.047,719.067 690.279,713.256 691.512,706.965 692.744,700.337 693.976,693.551 695.208,686.829 696.44,680.425 697.672,674.632 698.904,669.765 700.136,666.155 701.368,664.133 702.601,664.005 703.833,666.027 705.065,670.363 706.297,677.052 707.529,685.966 708.761,696.775 709.993,708.937 711.225,721.706 712.457,734.183 713.69,745.403 714.922,754.462 716.154,760.657 717.386,763.625 718.618,763.433 719.85,760.606 721.082,756.051 722.314,750.902 723.546,746.306 724.779,743.197 726.011,742.119 727.243,743.145 728.475,745.904 729.707,749.71 730.939,753.747 732.171,757.257 733.403,759.688 734.635,760.769 735.867,760.504 737.1,759.12 738.332,756.968 739.564,754.439 740.796,751.883 742.028,749.566 743.26,747.652 744.492,746.205 745.724,745.209 746.956,744.589 748.189,744.236 749.421,744.019 750.653,743.806 751.885,743.464 753.117,742.874 754.349,741.922 755.581,740.512 756.813,738.558 758.045,735.995 759.278,732.775 760.51,728.872 761.742,724.29 762.974,719.06 764.206,713.249 765.438,706.958 766.67,700.33 767.902,693.544 769.134,686.822 770.367,680.419 771.599,674.626 772.831,669.758 774.063,666.149 775.295,664.127 776.527,663.999 777.759,666.02 778.991,670.356 780.223,677.046 781.456,685.959 782.688,696.768 783.92,708.93 785.152,721.699 786.384,734.175 787.616,745.395 788.848,754.454 790.08,760.649 791.312,763.617 792.545,763.426 793.777,760.599 795.009,756.043 796.241,750.894 797.473,746.298 798.705,743.189 799.937,742.111 801.169,743.137 802.401,745.896 803.634,749.702 804.866,753.739 806.098,757.249 807.33,759.681 808.562,760.761 809.794,760.497 811.026,759.112 812.258,756.961 813.49,754.432 814.722,751.876 815.955,749.559 817.187,747.644 818.419,746.197 819.651,745.201 820.883,744.582 822.115,744.228 823.347,744.012 824.579,743.798 825.811,743.457 827.044,742.866 828.276,741.915 829.508,740.504 830.74,738.551 831.972,735.988 833.204,732.767 834.436,728.865 835.668,724.283 836.9,719.053 838.133,713.241 839.365,706.951 840.597,700.323 841.829,693.537 843.061,686.815 844.293,680.412 845.525,674.619 846.757,669.752 847.989,666.142 849.222,664.12 850.454,663.992 851.686,666.013 852.918,670.349 854.15,677.039 855.382,685.952 856.614,696.761 857.846,708.923 859.078,721.692 860.311,734.168 861.543,745.388 862.775,754.446 864.007,760.642 865.239,763.609 866.471,763.418 867.703,760.591 868.935,756.036 870.167,750.887 871.4,746.291 872.632,743.182 873.864,742.104 875.096,743.13 876.328,745.889 877.56,749.695 878.792,753.731 880.024,757.241 881.256,759.673 882.488,760.753 883.721,760.489 884.953,759.104 886.185,756.953 887.417,754.424 888.649,751.868 889.881,749.551 891.113,747.637 892.345,746.19 893.577,745.194 894.81,744.574 896.042,744.221 897.274,744.004 898.506,743.791 899.738,743.449 900.97,742.859 902.202,741.907 903.434,740.497 904.666,738.544 905.899,735.98 907.131,732.76 908.363,728.858 909.595,724.276 910.827,719.046 912.059,713.234 913.291,706.944 914.523,700.316 915.755,693.53 916.988,686.808 918.22,680.405 919.452,674.612 920.684,669.745 921.916,666.135 923.148,664.113 924.38,663.986 925.612,666.007 926.844,670.343 928.077,677.032 929.309,685.945 930.541,696.754 931.773,708.916 933.005,721.684 934.237,734.16 935.469,745.38 936.701,754.439 937.933,760.634 939.166,763.601 940.398,763.41 941.63,760.583 942.862,756.028 944.094,750.879 945.326,746.283 946.558,743.174 947.79,742.096 949.022,743.122 950.254,745.881 951.487,749.687 952.719,753.724 953.951,757.234 955.183,759.665 956.415,760.746 957.647,760.481 958.879,759.097 960.111,756.945 961.343,754.416 962.576,751.86 963.808,749.544 965.04,747.629 966.272,746.182 967.504,745.186 968.736,744.567 969.968,744.213 971.2,743.997 972.432,743.783 973.665,743.442 974.897,742.851 976.129,741.9 977.361,740.489 978.593,738.536 979.825,735.973 981.057,732.753 982.289,728.85 983.521,724.268 984.754,719.038 985.986,713.227 987.218,706.937 988.45,700.309 989.682,693.523 990.914,686.801 992.146,680.398 993.378,674.605 994.61,669.738 995.843,666.129 997.075,664.107 998.307,663.979 999.539,666 1000.77,670.336 1002,677.025 1003.24,685.939 1004.47,696.747 1005.7,708.909 1006.93,721.677 1008.16,734.153 1009.4,745.373 1010.63,754.431 1011.86,760.626 1013.09,763.594 1014.32,763.403 1015.56,760.576 1016.79,756.02 1018.02,750.871 1019.25,746.276 1020.48,743.167 1021.72,742.089 1022.95,743.115 1024.18,745.874 1025.41,749.68 1026.65,753.716 1027.88,757.226 1029.11,759.658 1030.34,760.738 1031.57,760.474 1032.81,759.089 1034.04,756.938 1035.27,754.409 1036.5,751.853 1037.73,749.536 1038.97,747.622 1040.2,746.175 1041.43,745.179 1042.66,744.559 1043.89,744.206 1045.13,743.989 1046.36,743.776 1047.59,743.434 1048.82,742.844 1050.06,741.892 1051.29,740.482 1052.52,738.529 1053.75,735.966 1054.98,732.745 1056.22,728.843 1057.45,724.261 1058.68,719.031 1059.91,713.22 1061.14,706.93 1062.38,700.302 1063.61,693.517 1064.84,686.794 1066.07,680.391 1067.3,674.598 1068.54,669.732 1069.77,666.122 1071,664.1 1072.23,663.972 1073.47,665.993 1074.7,670.329 1075.93,677.018 1077.16,685.932 1078.39,696.74 1079.63,708.902 1080.86,721.67 1082.09,734.146 1083.32,745.365 1084.55,754.423 1085.79,760.618 1087.02,763.586 1088.25,763.395 1089.48,760.568 1090.71,756.013 1091.95,750.864 1093.18,746.268 1094.41,743.159 1095.64,742.081 1096.88,743.107 1098.11,745.866 1099.34,749.672 1100.57,753.709 1101.8,757.219 1103.04,759.65 1104.27,760.73 1105.5,760.466 1106.73,759.081 1107.96,756.93 1109.2,754.401 1110.43,751.845 1111.66,749.528 1112.89,747.614 1114.13,746.167 1115.36,745.171 1116.59,744.552 1117.82,744.198 1119.05,743.982 1120.29,743.768 1121.52,743.427 1122.75,742.836 1123.98,741.885 1125.21,740.474 1126.45,738.521 1127.68,735.958 1128.91,732.738 1130.14,728.836 1131.37,724.254 1132.61,719.024 1133.84,713.213 1135.07,706.923 1136.3,700.295 1137.54,693.51 1138.77,686.787 1140,680.385 1141.23,674.592 1142.46,669.725 1143.7,666.115 1144.93,664.093 1146.16,663.966 1147.39,665.987 1148.62,670.322 1149.86,677.012 1151.09,685.925 1152.32,696.733 1153.55,708.895 1154.78,721.662 1156.02,734.138 1157.25,745.358 1158.48,754.416 1159.71,760.611 1160.95,763.578 1162.18,763.387 1163.41,760.56 1164.64,756.005 1165.87,750.856 1167.11,746.261 1168.34,743.152 1169.57,742.074 1170.8,743.1 1172.03,745.859 1173.27,749.664 1174.5,753.701 1175.73,757.211 1176.96,759.642 1178.19,760.723 1179.43,760.458 1180.66,759.074 1181.89,756.922 1183.12,754.393 1184.36,751.838 1185.59,749.521 1186.82,747.607 1188.05,746.16 1189.28,745.164 1190.52,744.544 1191.75,744.191 1192.98,743.974 1194.21,743.76 1195.44,743.419 1196.68,742.829 1197.91,741.877 1199.14,740.467 1200.37,738.514 1201.6,735.951 1202.84,732.731 1204.07,728.828 1205.3,724.246 1206.53,719.017 1207.77,713.206 1209,706.915 1210.23,700.288 1211.46,693.503 1212.69,686.78 1213.93,680.378 1215.16,674.585 1216.39,669.718 1217.62,666.109 1218.85,664.087 1220.09,663.959 1221.32,665.98 1222.55,670.316 1223.78,677.005 1225.01,685.918 1226.25,696.726 1227.48,708.887 1228.71,721.655 1229.94,734.131 1231.18,745.35 1232.41,754.408 1233.64,760.603 1234.87,763.571 1236.1,763.379 1237.34,760.553 1238.57,755.997 1239.8,750.849 1241.03,746.253 1242.26,743.144 1243.5,742.066 1244.73,743.092 1245.96,745.851 1247.19,749.657 1248.42,753.693 1249.66,757.203 1250.89,759.635 1252.12,760.715 1253.35,760.451 1254.59,759.066 1255.82,756.915 1257.05,754.386 1258.28,751.83 1259.51,749.513 1260.75,747.599 1261.98,746.152 1263.21,745.156 1264.44,744.537 1265.67,744.183 1266.91,743.967 1268.14,743.753 1269.37,743.412 1270.6,742.821 1271.84,741.87 1273.07,740.46 1274.3,738.506 1275.53,735.943 1276.76,732.723 1278,728.821 1279.23,724.239 1280.46,719.01 1281.69,713.198 1282.92,706.908 1284.16,700.281 1285.39,693.496 1286.62,686.773 1287.85,680.371 1289.08,674.578 1290.32,669.712 1291.55,666.102 1292.78,664.08 1294.01,663.952 1295.25,665.973 1296.48,670.309 1297.71,676.998 1298.94,685.911 1300.17,696.719 1301.41,708.88 1302.64,721.648 1303.87,734.123 1305.1,745.343 1306.33,754.401 1307.57,760.595 1308.8,763.563 1310.03,763.372 1311.26,760.545 1312.49,755.99 1313.73,750.841 1314.96,746.246 1316.19,743.137 1317.42,742.059 1318.66,743.085 1319.89,745.844 1321.12,749.649 1322.35,753.686 1323.58,757.196 1324.82,759.627 1326.05,760.707 1327.28,760.443 1328.51,759.058 1329.74,756.907 1330.98,754.378 1332.21,751.822 1333.44,749.506 1334.67,747.592 1335.9,746.145 1337.14,745.149 1338.37,744.529 1339.6,744.176 1340.83,743.959 1342.07,743.745 1343.3,743.404 1344.53,742.814 1345.76,741.862 1346.99,740.452 1348.23,738.499 1349.46,735.936 1350.69,732.716 1351.92,728.814 1353.15,724.232 1354.39,719.002 1355.62,713.191 1356.85,706.901 1358.08,700.274 1359.31,693.489 1360.55,686.766 1361.78,680.364 1363.01,674.571 1364.24,669.705 1365.48,666.095 1366.71,664.073 1367.94,663.946 1369.17,665.967 1370.4,670.302 1371.64,676.991 1372.87,685.904 1374.1,696.712 1375.33,708.873 1376.56,721.641 1377.8,734.116 1379.03,745.335 1380.26,754.393 1381.49,760.588 1382.72,763.555 1383.96,763.364 1385.19,760.537 1386.42,755.982 1387.65,750.834 1388.89,746.238 1390.12,743.129 1391.35,742.051 1392.58,743.077 1393.81,745.836 1395.05,749.642 1396.28,753.678 1397.51,757.188 1398.74,759.619 1399.97,760.7 1401.21,760.435 1402.44,759.051 1403.67,756.899 1404.9,754.371 1406.13,751.815 1407.37,749.498 1408.6,747.584 1409.83,746.137 1411.06,745.141 1412.3,744.522 1413.53,744.168 1414.76,743.952 1415.99,743.738 1417.22,743.397 1418.46,742.806 1419.69,741.855 1420.92,740.445 1422.15,738.491 1423.38,735.929 1424.62,732.708 1425.85,728.806 1427.08,724.224 1428.31,718.995 1429.54,713.184 1430.78,706.894 1432.01,700.266 1433.24,693.482 1434.47,686.76 1435.71,680.357 1436.94,674.565 1438.17,669.698 1439.4,666.089 1440.63,664.067 1441.87,663.939 1443.1,665.96 1444.33,670.296 1445.56,676.984 1446.79,685.897 1448.03,696.705 1449.26,708.866 1450.49,721.633 1451.72,734.109 1452.96,745.327 1454.19,754.385 1455.42,760.58 1456.65,763.547 1457.88,763.356 1459.12,760.529 1460.35,755.974 1461.58,750.826 1462.81,746.23 1464.04,743.122 1465.28,742.044 1466.51,743.07 1467.74,745.828 1468.97,749.634 1470.2,753.671 1471.44,757.18 1472.67,759.611 1473.9,760.692 1475.13,760.427 1476.37,759.043 1477.6,756.892 1478.83,754.363 1480.06,751.807 1481.29,749.491 1482.53,747.576 1483.76,746.13 1484.99,745.134 1486.22,744.514 1487.45,744.161 1488.69,743.944 1489.92,743.73 1491.15,743.389 1492.38,742.799 1493.61,741.847 1494.85,740.437 1496.08,738.484 1497.31,735.921 1498.54,732.701 1499.78,728.799 1501.01,724.217 1502.24,718.988 1503.47,713.177 1504.7,706.887 1505.94,700.259 1507.17,693.475 1508.4,686.753 1509.63,680.35 1510.86,674.558 1512.1,669.691 1513.33,666.082 1514.56,664.06 1515.79,663.932 "/>
<path clip-path="url(#clip880)" d="M1142.86 229 L1509.22 229 L1509.22 73.4796 L1142.86 73.4796  Z" fill="#ffffff" fill-rule="evenodd" fill-opacity="1"/>
<polyline clip-path="url(#clip880)" style="stroke:#000000; stroke-linecap:round; stroke-linejoin:round; stroke-width:4; stroke-opacity:1; fill:none" points="1142.86,229 1509.22,229 1509.22,73.4796 1142.86,73.4796 1142.86,229 "/>
<polyline clip-path="url(#clip880)" style="stroke:#009af9; stroke-linecap:round; stroke-linejoin:round; stroke-width:4; stroke-opacity:1; fill:none" points="1157.37,125.32 1244.44,125.32 "/>
<path clip-path="url(#clip880)" d="M1263.35 129.66 Q1263.35 134.359 1265.27 137.044 Q1267.21 139.706 1270.59 139.706 Q1273.97 139.706 1275.91 137.044 Q1277.86 134.359 1277.86 129.66 Q1277.86 124.961 1275.91 122.299 Q1273.97 119.614 1270.59 119.614 Q1267.21 119.614 1265.27 122.299 Q1263.35 124.961 1263.35 129.66 M1277.86 138.711 Q1276.52 141.026 1274.46 142.16 Q1272.42 143.271 1269.55 143.271 Q1264.85 143.271 1261.89 139.521 Q1258.95 135.771 1258.95 129.66 Q1258.95 123.549 1261.89 119.799 Q1264.85 116.049 1269.55 116.049 Q1272.42 116.049 1274.46 117.183 Q1276.52 118.294 1277.86 120.609 L1277.86 116.674 L1282.12 116.674 L1282.12 152.461 L1277.86 152.461 L1277.86 138.711 Z" fill="#000000" fill-rule="nonzero" fill-opacity="1" /><path clip-path="url(#clip880)" d="M1290.45 132.368 L1290.45 116.674 L1294.71 116.674 L1294.71 132.206 Q1294.71 135.887 1296.15 137.739 Q1297.58 139.567 1300.45 139.567 Q1303.9 139.567 1305.89 137.368 Q1307.91 135.169 1307.91 131.373 L1307.91 116.674 L1312.16 116.674 L1312.16 142.6 L1307.91 142.6 L1307.91 138.618 Q1306.35 140.979 1304.29 142.137 Q1302.26 143.271 1299.55 143.271 Q1295.08 143.271 1292.77 140.493 Q1290.45 137.715 1290.45 132.368 M1301.17 116.049 L1301.17 116.049 Z" fill="#000000" fill-rule="nonzero" fill-opacity="1" /><path clip-path="url(#clip880)" d="M1343.11 128.572 L1343.11 130.655 L1323.53 130.655 Q1323.81 135.053 1326.17 137.368 Q1328.55 139.66 1332.79 139.66 Q1335.24 139.66 1337.53 139.058 Q1339.85 138.456 1342.12 137.252 L1342.12 141.28 Q1339.83 142.252 1337.42 142.762 Q1335.01 143.271 1332.53 143.271 Q1326.33 143.271 1322.7 139.66 Q1319.09 136.049 1319.09 129.891 Q1319.09 123.526 1322.51 119.799 Q1325.96 116.049 1331.79 116.049 Q1337.03 116.049 1340.06 119.428 Q1343.11 122.785 1343.11 128.572 M1338.85 127.322 Q1338.81 123.827 1336.89 121.743 Q1334.99 119.66 1331.84 119.66 Q1328.28 119.66 1326.12 121.674 Q1323.99 123.688 1323.67 127.345 L1338.85 127.322 Z" fill="#000000" fill-rule="nonzero" fill-opacity="1" /><path clip-path="url(#clip880)" d="M1371.65 126.952 L1371.65 142.6 L1367.4 142.6 L1367.4 127.09 Q1367.4 123.41 1365.96 121.581 Q1364.53 119.753 1361.66 119.753 Q1358.21 119.753 1356.22 121.952 Q1354.22 124.151 1354.22 127.947 L1354.22 142.6 L1349.94 142.6 L1349.94 116.674 L1354.22 116.674 L1354.22 120.702 Q1355.75 118.364 1357.81 117.206 Q1359.9 116.049 1362.6 116.049 Q1367.07 116.049 1369.36 118.827 Q1371.65 121.581 1371.65 126.952 Z" fill="#000000" fill-rule="nonzero" fill-opacity="1" /><path clip-path="url(#clip880)" d="M1398.81 117.669 L1398.81 121.651 Q1397 120.655 1395.17 120.169 Q1393.37 119.66 1391.52 119.66 Q1387.37 119.66 1385.08 122.299 Q1382.79 124.915 1382.79 129.66 Q1382.79 134.405 1385.08 137.044 Q1387.37 139.66 1391.52 139.66 Q1393.37 139.66 1395.17 139.174 Q1397 138.664 1398.81 137.669 L1398.81 141.604 Q1397.03 142.438 1395.1 142.854 Q1393.21 143.271 1391.05 143.271 Q1385.2 143.271 1381.75 139.59 Q1378.3 135.91 1378.3 129.66 Q1378.3 123.317 1381.77 119.683 Q1385.27 116.049 1391.33 116.049 Q1393.3 116.049 1395.17 116.466 Q1397.05 116.859 1398.81 117.669 Z" fill="#000000" fill-rule="nonzero" fill-opacity="1" /><path clip-path="url(#clip880)" d="M1427.77 126.952 L1427.77 142.6 L1423.51 142.6 L1423.51 127.09 Q1423.51 123.41 1422.07 121.581 Q1420.64 119.753 1417.77 119.753 Q1414.32 119.753 1412.33 121.952 Q1410.34 124.151 1410.34 127.947 L1410.34 142.6 L1406.05 142.6 L1406.05 106.581 L1410.34 106.581 L1410.34 120.702 Q1411.86 118.364 1413.92 117.206 Q1416.01 116.049 1418.71 116.049 Q1423.18 116.049 1425.47 118.827 Q1427.77 121.581 1427.77 126.952 Z" fill="#000000" fill-rule="nonzero" fill-opacity="1" /><polyline clip-path="url(#clip880)" style="stroke:#e26f46; stroke-linecap:round; stroke-linejoin:round; stroke-width:4; stroke-opacity:1; fill:none" points="1157.37,177.16 1244.44,177.16 "/>
<path clip-path="url(#clip880)" d="M1277.37 169.278 L1277.37 173.305 Q1275.57 172.38 1273.62 171.917 Q1271.68 171.454 1269.6 171.454 Q1266.42 171.454 1264.83 172.426 Q1263.25 173.398 1263.25 175.342 Q1263.25 176.824 1264.39 177.68 Q1265.52 178.514 1268.95 179.278 L1270.41 179.602 Q1274.94 180.574 1276.84 182.356 Q1278.76 184.116 1278.76 187.287 Q1278.76 190.898 1275.89 193.004 Q1273.04 195.111 1268.04 195.111 Q1265.96 195.111 1263.69 194.694 Q1261.45 194.301 1258.95 193.491 L1258.95 189.092 Q1261.31 190.319 1263.6 190.944 Q1265.89 191.546 1268.14 191.546 Q1271.15 191.546 1272.77 190.528 Q1274.39 189.486 1274.39 187.611 Q1274.39 185.875 1273.21 184.949 Q1272.05 184.023 1268.09 183.167 L1266.61 182.819 Q1262.65 181.986 1260.89 180.273 Q1259.13 178.537 1259.13 175.528 Q1259.13 171.87 1261.73 169.88 Q1264.32 167.889 1269.09 167.889 Q1271.45 167.889 1273.53 168.236 Q1275.61 168.583 1277.37 169.278 Z" fill="#000000" fill-rule="nonzero" fill-opacity="1" /><path clip-path="url(#clip880)" d="M1289.76 161.153 L1289.76 168.514 L1298.53 168.514 L1298.53 171.824 L1289.76 171.824 L1289.76 185.898 Q1289.76 189.069 1290.61 189.972 Q1291.49 190.875 1294.16 190.875 L1298.53 190.875 L1298.53 194.44 L1294.16 194.44 Q1289.22 194.44 1287.35 192.611 Q1285.47 190.759 1285.47 185.898 L1285.47 171.824 L1282.35 171.824 L1282.35 168.514 L1285.47 168.514 L1285.47 161.153 L1289.76 161.153 Z" fill="#000000" fill-rule="nonzero" fill-opacity="1" /><path clip-path="url(#clip880)" d="M1315.91 181.407 Q1310.75 181.407 1308.76 182.588 Q1306.77 183.768 1306.77 186.616 Q1306.77 188.884 1308.25 190.227 Q1309.76 191.546 1312.33 191.546 Q1315.87 191.546 1318 189.046 Q1320.15 186.523 1320.15 182.356 L1320.15 181.407 L1315.91 181.407 M1324.41 179.648 L1324.41 194.44 L1320.15 194.44 L1320.15 190.504 Q1318.69 192.866 1316.52 194 Q1314.34 195.111 1311.19 195.111 Q1307.21 195.111 1304.85 192.889 Q1302.51 190.643 1302.51 186.893 Q1302.51 182.518 1305.43 180.296 Q1308.37 178.074 1314.18 178.074 L1320.15 178.074 L1320.15 177.657 Q1320.15 174.718 1318.21 173.12 Q1316.28 171.5 1312.79 171.5 Q1310.57 171.5 1308.46 172.032 Q1306.35 172.565 1304.41 173.63 L1304.41 169.694 Q1306.75 168.792 1308.95 168.352 Q1311.15 167.889 1313.23 167.889 Q1318.85 167.889 1321.63 170.805 Q1324.41 173.722 1324.41 179.648 Z" fill="#000000" fill-rule="nonzero" fill-opacity="1" /><path clip-path="url(#clip880)" d="M1337.4 161.153 L1337.4 168.514 L1346.17 168.514 L1346.17 171.824 L1337.4 171.824 L1337.4 185.898 Q1337.4 189.069 1338.25 189.972 Q1339.13 190.875 1341.79 190.875 L1346.17 190.875 L1346.17 194.44 L1341.79 194.44 Q1336.86 194.44 1334.99 192.611 Q1333.11 190.759 1333.11 185.898 L1333.11 171.824 L1329.99 171.824 L1329.99 168.514 L1333.11 168.514 L1333.11 161.153 L1337.4 161.153 Z" fill="#000000" fill-rule="nonzero" fill-opacity="1" /><path clip-path="url(#clip880)" d="M1351.77 168.514 L1356.03 168.514 L1356.03 194.44 L1351.77 194.44 L1351.77 168.514 M1351.77 158.421 L1356.03 158.421 L1356.03 163.815 L1351.77 163.815 L1351.77 158.421 Z" fill="#000000" fill-rule="nonzero" fill-opacity="1" /><path clip-path="url(#clip880)" d="M1374.99 171.5 Q1371.56 171.5 1369.57 174.185 Q1367.58 176.847 1367.58 181.5 Q1367.58 186.153 1369.55 188.838 Q1371.54 191.5 1374.99 191.5 Q1378.39 191.5 1380.38 188.815 Q1382.37 186.129 1382.37 181.5 Q1382.37 176.893 1380.38 174.208 Q1378.39 171.5 1374.99 171.5 M1374.99 167.889 Q1380.54 167.889 1383.72 171.5 Q1386.89 175.111 1386.89 181.5 Q1386.89 187.866 1383.72 191.5 Q1380.54 195.111 1374.99 195.111 Q1369.41 195.111 1366.24 191.5 Q1363.09 187.866 1363.09 181.5 Q1363.09 175.111 1366.24 171.5 Q1369.41 167.889 1374.99 167.889 Z" fill="#000000" fill-rule="nonzero" fill-opacity="1" /><path clip-path="url(#clip880)" d="M1415.5 178.792 L1415.5 194.44 L1411.24 194.44 L1411.24 178.93 Q1411.24 175.25 1409.8 173.421 Q1408.37 171.593 1405.5 171.593 Q1402.05 171.593 1400.06 173.792 Q1398.07 175.991 1398.07 179.787 L1398.07 194.44 L1393.78 194.44 L1393.78 168.514 L1398.07 168.514 L1398.07 172.542 Q1399.59 170.204 1401.65 169.046 Q1403.74 167.889 1406.45 167.889 Q1410.91 167.889 1413.21 170.667 Q1415.5 173.421 1415.5 178.792 Z" fill="#000000" fill-rule="nonzero" fill-opacity="1" /><path clip-path="url(#clip880)" d="M1435.78 181.407 Q1430.61 181.407 1428.62 182.588 Q1426.63 183.768 1426.63 186.616 Q1426.63 188.884 1428.11 190.227 Q1429.62 191.546 1432.19 191.546 Q1435.73 191.546 1437.86 189.046 Q1440.01 186.523 1440.01 182.356 L1440.01 181.407 L1435.78 181.407 M1444.27 179.648 L1444.27 194.44 L1440.01 194.44 L1440.01 190.504 Q1438.55 192.866 1436.38 194 Q1434.2 195.111 1431.05 195.111 Q1427.07 195.111 1424.71 192.889 Q1422.37 190.643 1422.37 186.893 Q1422.37 182.518 1425.29 180.296 Q1428.23 178.074 1434.04 178.074 L1440.01 178.074 L1440.01 177.657 Q1440.01 174.718 1438.07 173.12 Q1436.15 171.5 1432.65 171.5 Q1430.43 171.5 1428.32 172.032 Q1426.21 172.565 1424.27 173.63 L1424.27 169.694 Q1426.61 168.792 1428.81 168.352 Q1431.01 167.889 1433.09 167.889 Q1438.71 167.889 1441.49 170.805 Q1444.27 173.722 1444.27 179.648 Z" fill="#000000" fill-rule="nonzero" fill-opacity="1" /><path clip-path="url(#clip880)" d="M1468.07 172.495 Q1467.35 172.079 1466.49 171.893 Q1465.66 171.685 1464.64 171.685 Q1461.03 171.685 1459.09 174.046 Q1457.16 176.384 1457.16 180.782 L1457.16 194.44 L1452.88 194.44 L1452.88 168.514 L1457.16 168.514 L1457.16 172.542 Q1458.51 170.18 1460.66 169.046 Q1462.81 167.889 1465.89 167.889 Q1466.33 167.889 1466.86 167.958 Q1467.4 168.005 1468.04 168.12 L1468.07 172.495 Z" fill="#000000" fill-rule="nonzero" fill-opacity="1" /><path clip-path="url(#clip880)" d="M1483.32 196.847 Q1481.52 201.477 1479.8 202.889 Q1478.09 204.301 1475.22 204.301 L1471.82 204.301 L1471.82 200.736 L1474.32 200.736 Q1476.08 200.736 1477.05 199.903 Q1478.02 199.069 1479.2 195.967 L1479.96 194.023 L1469.48 168.514 L1473.99 168.514 L1482.09 188.792 L1490.2 168.514 L1494.71 168.514 L1483.32 196.847 Z" fill="#000000" fill-rule="nonzero" fill-opacity="1" /></svg>
