<?xml version="1.0" encoding="UTF-8" standalone="no"?>
<!-- Created with Inkscape (http://www.inkscape.org/) -->

<svg
   version="1.1"
   id="svg1"
   width="267.828"
   height="76.254669"
   viewBox="0 0 267.828 76.254669"
   sodipodi:docname="upload_bsphjtjlsjgzkklqm5vcj65mmd.pdf"
   xmlns:inkscape="http://www.inkscape.org/namespaces/inkscape"
   xmlns:sodipodi="http://sodipodi.sourceforge.net/DTD/sodipodi-0.dtd"
   xmlns="http://www.w3.org/2000/svg"
   xmlns:svg="http://www.w3.org/2000/svg">
  <defs
     id="defs1" />
  <sodipodi:namedview
     id="namedview1"
     pagecolor="#ffffff"
     bordercolor="#000000"
     borderopacity="0.25"
     inkscape:showpageshadow="2"
     inkscape:pageopacity="0.0"
     inkscape:pagecheckerboard="0"
     inkscape:deskcolor="#d1d1d1">
    <inkscape:page
       x="0"
       y="0"
       inkscape:label="1"
       id="page1"
       width="267.828"
       height="76.254669"
       margin="0"
       bleed="0" />
  </sodipodi:namedview>
  <g
     id="g1"
     inkscape:groupmode="layer"
     inkscape:label="1">
    <path
       id="path1"
       d="M 0,-14.17339 H 170.08076"
       style="fill:none;stroke:#000000;stroke-width:0.99628;stroke-linecap:butt;stroke-linejoin:miter;stroke-miterlimit:10;stroke-dasharray:none;stroke-opacity:1"
       transform="matrix(1.3333333,0,0,-1.3333333,40.392,0.332)" />
    <path
       id="path2"
       d="M -28.34679,-42.52019 H 170.08076"
       style="fill:none;stroke:#000000;stroke-width:0.3985;stroke-linecap:butt;stroke-linejoin:miter;stroke-miterlimit:10;stroke-dasharray:none;stroke-opacity:1"
       transform="matrix(1.3333333,0,0,-1.3333333,40.392,0.332)" />
    <path
       id="path3"
       d="m -28.34679,-6.39879 v -15.54918 c 0,-2.75117 2.23021,-4.98138 4.98139,-4.98138 h 18.38402 c 2.75118,0 4.98138,2.23021 4.98138,4.98138 v 15.54918 c 0,2.75118 -2.2302,4.98139 -4.98138,4.98139 H -23.3654 c -2.75118,0 -4.98139,-2.23021 -4.98139,-4.98139 z"
       style="fill:#aae3ff;fill-opacity:1;fill-rule:nonzero;stroke:#000000;stroke-width:0.49814;stroke-linecap:butt;stroke-linejoin:miter;stroke-miterlimit:10;stroke-dasharray:none;stroke-opacity:1"
       transform="matrix(1.3333333,0,0,-1.3333333,40.392,0.332)" />
    <g
       id="g3"
       aria-label="tr&#10;e"
       transform="matrix(2,0,0,2,11.338667,23.862667)">
      <path
         id="path4"
         d="m 1.727151,-3.9840677 h 1.421875 v -0.3125 H 1.727151 v -1.828125 h -0.25 c -0.015625,0.8125 -0.3125,1.8828125 -1.28906246,1.921875 v 0.21875 H 1.039651 v 2.75 c 0,1.22656249 0.921875,1.34374999 1.28125,1.34374999 0.7109375,0 0.984375,-0.703125 0.984375,-1.34374999 v -0.5703125 h -0.25 v 0.546875 c 0,0.74218749 -0.296875,1.11718749 -0.6640625,1.11718749 -0.6640625,0 -0.6640625,-0.90624999 -0.6640625,-1.07812499 z m 3.8105469,0.6796875 v -1.1015625 l -1.3828125,0.109375 v 0.3125 c 0.6953125,0 0.7734375,0.070312 0.7734375,0.5546875 v 2.67187499 c 0,0.4453125 -0.109375,0.4453125 -0.7734375,0.4453125 V 3.0729167e-4 C 4.5376979,-0.00750521 5.0064479,-0.03094271 5.2876979,-0.03094271 c 0.3984375,0 0.8671875,0 1.265625,0.0312500017 V -0.31219271 H 6.3423854 c -0.734375,0 -0.7578125,-0.109375 -0.7578125,-0.4609375 V -2.3121927 c 0,-0.984375 0.421875,-1.8671875 1.1796875,-1.8671875 0.070312,0 0.085937,0 0.109375,0.00781 -0.03125,0.00781 -0.234375,0.125 -0.234375,0.390625 0,0.2734375 0.2109375,0.421875 0.4296875,0.421875 0.1796875,0 0.4296875,-0.1171875 0.4296875,-0.4375 0,-0.3203125 -0.3046875,-0.609375 -0.734375,-0.609375 -0.7265625,0 -1.0859375,0.671875 -1.2265625,1.1015625 z m 0,0"
         style="fill:#000000;fill-opacity:1;fill-rule:nonzero;stroke:none" />
      <path
         id="path5"
         d="m 10.846292,-0.09930208 c 0.148437,0 0.195312,0 0.195312,-0.1484375 0,-0.6171875 -0.34375,-1.36718752 -1.3828123,-1.36718752 -0.9140625,0 -1.609375,0.72656252 -1.609375,1.57812502 0,0.890625 0.7734375,1.60156248 1.703125,1.60156248 0.9375003,0 1.2890623,-0.75781248 1.2890623,-0.90624998 0,-0.03125 -0.01563,-0.1015625 -0.117187,-0.1015625 -0.09375,0 -0.109375,0.046875 -0.125,0.1171875 -0.21875,0.56249998 -0.75,0.66406248 -1.0000003,0.66406248 -0.328125,0 -0.640625,-0.140625 -0.8515625,-0.40624998 -0.2578125,-0.328125 -0.265625,-0.7578125 -0.265625,-1.03125 z m -2.1562503,-0.1796875 c 0.078125,-0.98437502 0.703125,-1.14062502 0.96875,-1.14062502 0.8593753,0 0.8906253,0.96875002 0.8906253,1.14062502 z m 0,0"
         style="fill:#000000;fill-opacity:1;fill-rule:nonzero;stroke:none" />
    </g>
    <path
       id="path6"
       d="m 14.17339,-1.99255 v -52.70848 c 0,-1.10047 0.89209,-1.99256 1.99255,-1.99256 h 24.36169 c 1.10047,0 1.99256,0.89209 1.99256,1.99256 V -1.99255 C 42.52019,-0.89207 41.6281,0 40.52763,0 H 16.16594 c -1.10046,0 -1.99255,-0.89207 -1.99255,-1.99255 z"
       style="fill:#aae3ff;fill-opacity:1;fill-rule:nonzero;stroke:#000000;stroke-width:0.49814;stroke-linecap:butt;stroke-linejoin:miter;stroke-miterlimit:10;stroke-dasharray:none;stroke-opacity:1"
       transform="matrix(1.3333333,0,0,-1.3333333,40.392,0.332)" />
    <g
       id="g6"
       aria-label="U&#10;δt"
       transform="matrix(2,0,0,2,66.128,43.441333)">
      <path
         id="path7"
         d="m 4.9145156,-2.945276 c -0.234375,0.8359375 -0.578125,2.07031246 -0.578125,2.83593746 0,0.265625 0.1640625,0.390625 0.40625,0.390625 0.3984375,0 1.1484375,-0.4296875 1.1484375,-0.6328125 0,-0.046875 -0.054687,-0.0703125 -0.1015625,-0.0703125 -0.125,0 -0.296875,0.09375 -0.4140625,0.15625 -0.125,-0.0234375 -0.1953125,-0.125 -0.1953125,-0.265625 0,-1.21093746 1.1328125,-4.69531246 1.421875,-5.43749996 0.125,-0.2734375 0.25,-0.6875 0.25,-0.765625 0,-0.070312 -0.054687,-0.070312 -0.1015625,-0.070312 -0.203125,0 -0.65625,0.2734375 -0.734375,0.4609375 -0.125,0.34375 -0.1484375,0.3984375 -0.265625,0.765625 -0.328125,0.9453125 -1.3203125,2.59375 -2.3046875,3.7421875 -0.3046875,0.3515625 -1.28125,1.50781246 -1.9921875,1.50781246 -0.47656247,0 -0.77343747,-0.40625 -0.77343747,-1.06249996 0,-0.703125 0.38281247,-1.59375 0.98437497,-2.9609375 0.359375,-0.8203125 0.65625,-1.5234375 0.65625,-1.9765625 0,-0.46875 -0.3203125,-0.4765625 -0.5,-0.4765625 -0.765625,0 -1.71874997,0.6171875 -1.71874997,0.828125 0,0.0625 0.0703125,0.0625 0.109375,0.0625 0.1171875,0 0.296875,-0.085937 0.453125,-0.1953125 0.0703125,-0.046875 0.234375,-0.1484375 0.49999997,-0.1484375 0.21875,0 0.3125,0.140625 0.3125,0.359375 0,0.4375 -0.359375,1.2578125 -0.78124997,2.2109375 -0.65625,1.5 -0.8671875,2.1328125 -0.8671875,2.71093746 0,0.65625 0.2578125,1.1953125 0.96875,1.1953125 0.61718747,0 1.52343747,-0.40625 2.53906247,-1.35156246 0.6875,-0.6484375 1.1328125,-1.25 1.5625,-1.828125 z m 0,0"
         style="fill:#000000;fill-opacity:1;fill-rule:nonzero;stroke:none" />
      <path
         id="path8"
         d="m 8.2895156,-1.5370729 c -1.046875,0.2578125 -1.6328125,1.16406248 -1.6328125,1.89062498 0,0.74218752 0.5703125,1.22656252 1.2578125,1.22656252 0.84375,0 1.5,-0.99218752 1.5,-2.00781252 0,-0.67968748 -0.359375,-1.07812498 -0.578125,-1.31249998 -0.2578125,-0.296875 -0.78125,-0.8671875 -0.78125,-1.1875 0,-0.09375 0.1015625,-0.296875 0.3828125,-0.296875 0.2421875,0 0.4375,0.1171875 0.5859375,0.1953125 0.0625,0.039063 0.3125,0.1875 0.421875,0.1875 0.1640625,0 0.2890625,-0.15625 0.2890625,-0.296875 0,-0.171875 -0.085937,-0.1875 -0.46875,-0.265625 -0.078125,-0.015625 -0.3984375,-0.085937 -0.625,-0.085937 -0.5234375,0 -0.8125,0.3125 -0.8125,0.734375 0,0.3671875 0.21875,0.796875 0.4609375,1.2187495 z m 0.125,0.1875 c 0.1953125,0.3125 0.4453125,0.71874998 0.4453125,1.21874998 0,0.5703125 -0.34375,1.51562502 -0.9296875,1.51562502 -0.3828125,0 -0.7578125,-0.25 -0.7578125,-0.83593752 0,-0.453125 0.265625,-1.66406248 1.2421875,-1.89843748 z m 0,0"
         style="fill:#000000;fill-opacity:1;fill-rule:nonzero;stroke:none" />
      <path
         id="path9"
         d="m 11.506313,-1.2636354 h 1.09375 v -0.25 h -1.09375 v -1.28125 h -0.234375 c -0.0078,0.625 -0.289063,1.3203125 -0.960938,1.3359375 v 0.1953125 h 0.648438 v 1.88281248 c 0,0.78125002 0.585937,0.94531252 0.976562,0.94531252 0.46875,0 0.789063,-0.3984375 0.789063,-0.95312502 v -0.3828125 h -0.234375 v 0.3828125 c 0,0.46875002 -0.226563,0.72656252 -0.5,0.72656252 -0.484375,0 -0.484375,-0.58593752 -0.484375,-0.71093752 z m 0,0"
         style="fill:#000000;fill-opacity:1;fill-rule:nonzero;stroke:none" />
    </g>
    <path
       id="path10"
       d="m 56.69359,-1.99255 v -52.70848 c 0,-1.10047 0.89207,-1.99256 1.99255,-1.99256 h 24.36168 c 1.10048,0 1.99255,0.89209 1.99255,1.99256 V -1.99255 C 85.04037,-0.89207 84.1483,0 83.04782,0 H 58.68614 c -1.10048,0 -1.99255,-0.89207 -1.99255,-1.99255 z"
       style="fill:#aae3ff;fill-opacity:1;fill-rule:nonzero;stroke:#000000;stroke-width:0.49814;stroke-linecap:butt;stroke-linejoin:miter;stroke-miterlimit:10;stroke-dasharray:none;stroke-opacity:1"
       transform="matrix(1.3333333,0,0,-1.3333333,40.392,0.332)" />
    <g
       id="g10"
       aria-label="U&#10;δt"
       transform="matrix(2,0,0,2,122.82,43.441333)">
      <path
         id="path11"
         d="m 4.9142188,-2.945276 c -0.234375,0.8359375 -0.578125,2.07031246 -0.578125,2.83593746 0,0.265625 0.1640625,0.390625 0.40625,0.390625 0.3984375,0 1.1484375,-0.4296875 1.1484375,-0.6328125 0,-0.046875 -0.054687,-0.0703125 -0.1015625,-0.0703125 -0.125,0 -0.296875,0.09375 -0.4140625,0.15625 -0.125,-0.0234375 -0.1953125,-0.125 -0.1953125,-0.265625 0,-1.21093746 1.1328125,-4.69531246 1.421875,-5.43749996 0.125,-0.2734375 0.25,-0.6875 0.25,-0.765625 0,-0.070312 -0.054687,-0.070312 -0.1015625,-0.070312 -0.203125,0 -0.65625,0.2734375 -0.734375,0.4609375 -0.125,0.34375 -0.1484375,0.3984375 -0.265625,0.765625 -0.328125,0.9453125 -1.3203125,2.59375 -2.3046875,3.7421875 -0.3046875,0.3515625 -1.28125,1.50781246 -1.9921875,1.50781246 -0.47656255,0 -0.77343755,-0.40625 -0.77343755,-1.06249996 0,-0.703125 0.38281255,-1.59375 0.98437505,-2.9609375 0.359375,-0.8203125 0.65625,-1.5234375 0.65625,-1.9765625 0,-0.46875 -0.3203125,-0.4765625 -0.5,-0.4765625 -0.765625,0 -1.71875005,0.6171875 -1.71875005,0.828125 0,0.0625 0.0703125,0.0625 0.109375,0.0625 0.1171875,0 0.296875,-0.085937 0.453125,-0.1953125 0.0703125,-0.046875 0.234375,-0.1484375 0.50000005,-0.1484375 0.21875,0 0.3125,0.140625 0.3125,0.359375 0,0.4375 -0.359375,1.2578125 -0.78125005,2.2109375 -0.65625,1.5 -0.8671875,2.1328125 -0.8671875,2.71093746 0,0.65625 0.2578125,1.1953125 0.96875,1.1953125 0.61718755,0 1.52343755,-0.40625 2.53906255,-1.35156246 0.6875,-0.6484375 1.1328125,-1.25 1.5625,-1.828125 z m 0,0"
         style="fill:#000000;fill-opacity:1;fill-rule:nonzero;stroke:none" />
      <path
         id="path12"
         d="m 8.2892188,-1.5370729 c -1.046875,0.2578125 -1.6328125,1.16406248 -1.6328125,1.89062498 0,0.74218752 0.5703125,1.22656252 1.2578125,1.22656252 0.84375,0 1.5,-0.99218752 1.5,-2.00781252 0,-0.67968748 -0.359375,-1.07812498 -0.578125,-1.31249998 -0.2578125,-0.296875 -0.78125,-0.8671875 -0.78125,-1.1875 0,-0.09375 0.1015625,-0.296875 0.3828125,-0.296875 0.2421875,0 0.4375,0.1171875 0.5859375,0.1953125 0.0625,0.039063 0.3125,0.1875 0.421875,0.1875 0.1640625,0 0.2890625,-0.15625 0.2890625,-0.296875 0,-0.171875 -0.085937,-0.1875 -0.46875,-0.265625 -0.078125,-0.015625 -0.3984375,-0.085937 -0.625,-0.085937 -0.5234375,0 -0.8125,0.3125 -0.8125,0.734375 0,0.3671875 0.21875,0.796875 0.4609375,1.2187495 z m 0.125,0.1875 c 0.1953125,0.3125 0.4453125,0.71874998 0.4453125,1.21874998 0,0.5703125 -0.34375,1.51562502 -0.9296875,1.51562502 -0.3828125,0 -0.7578125,-0.25 -0.7578125,-0.83593752 0,-0.453125 0.265625,-1.66406248 1.2421875,-1.89843748 z m 0,0"
         style="fill:#000000;fill-opacity:1;fill-rule:nonzero;stroke:none" />
      <path
         id="path13"
         d="m 11.506016,-1.2636354 h 1.09375 v -0.25 h -1.09375 v -1.28125 h -0.234375 c -0.0078,0.625 -0.289063,1.3203125 -0.960938,1.3359375 v 0.1953125 h 0.648438 v 1.88281248 c 0,0.78125002 0.585937,0.94531252 0.976562,0.94531252 0.46875,0 0.789063,-0.3984375 0.789063,-0.95312502 v -0.3828125 h -0.234375 v 0.3828125 c 0,0.46875002 -0.226563,0.72656252 -0.5,0.72656252 -0.484375,0 -0.484375,-0.58593752 -0.484375,-0.71093752 z m 0,0"
         style="fill:#000000;fill-opacity:1;fill-rule:nonzero;stroke:none" />
    </g>
    <path
       id="path14"
       d="m 99.21378,-1.99255 v -52.70848 c 0,-1.10047 0.89207,-1.99256 1.99255,-1.99256 h 24.36168 c 1.10048,0 1.99255,0.89209 1.99255,1.99256 V -1.99255 C 127.56056,-0.89207 126.66849,0 125.56801,0 h -24.36168 c -1.10048,0 -1.99255,-0.89207 -1.99255,-1.99255 z"
       style="fill:#aae3ff;fill-opacity:1;fill-rule:nonzero;stroke:#000000;stroke-width:0.49814;stroke-linecap:butt;stroke-linejoin:miter;stroke-miterlimit:10;stroke-dasharray:none;stroke-opacity:1"
       transform="matrix(1.3333333,0,0,-1.3333333,40.392,0.332)" />
    <g
       id="g14"
       aria-label="U&#10;δt"
       transform="matrix(2,0,0,2,179.51333,43.441333)">
      <path
         id="path15"
         d="m 4.9132552,-2.945276 c -0.234375,0.8359375 -0.578125,2.07031246 -0.578125,2.83593746 0,0.265625 0.1640625,0.390625 0.40625,0.390625 0.3984375,0 1.1484375,-0.4296875 1.1484375,-0.6328125 0,-0.046875 -0.054687,-0.0703125 -0.1015625,-0.0703125 -0.125,0 -0.296875,0.09375 -0.4140625,0.15625 -0.125,-0.0234375 -0.1953125,-0.125 -0.1953125,-0.265625 0,-1.21093746 1.1328125,-4.69531246 1.421875,-5.43749996 0.125,-0.2734375 0.25,-0.6875 0.25,-0.765625 0,-0.070312 -0.054687,-0.070312 -0.1015625,-0.070312 -0.203125,0 -0.65625,0.2734375 -0.734375,0.4609375 -0.125,0.34375 -0.1484375,0.3984375 -0.265625,0.765625 -0.328125,0.9453125 -1.3203125,2.59375 -2.3046875,3.7421875 -0.3046875,0.3515625 -1.28125,1.50781246 -1.9921875,1.50781246 -0.47656249,0 -0.77343749,-0.40625 -0.77343749,-1.06249996 0,-0.703125 0.38281249,-1.59375 0.98437499,-2.9609375 0.359375,-0.8203125 0.65625,-1.5234375 0.65625,-1.9765625 0,-0.46875 -0.3203125,-0.4765625 -0.5,-0.4765625 -0.765625,0 -1.71874999,0.6171875 -1.71874999,0.828125 0,0.0625 0.0703125,0.0625 0.109375,0.0625 0.1171875,0 0.296875,-0.085937 0.453125,-0.1953125 0.0703125,-0.046875 0.234375,-0.1484375 0.49999999,-0.1484375 0.21875,0 0.3125,0.140625 0.3125,0.359375 0,0.4375 -0.359375,1.2578125 -0.78124999,2.2109375 -0.65625,1.5 -0.8671875,2.1328125 -0.8671875,2.71093746 0,0.65625 0.2578125,1.1953125 0.96875,1.1953125 0.61718749,0 1.52343749,-0.40625 2.53906249,-1.35156246 0.6875,-0.6484375 1.1328125,-1.25 1.5625,-1.828125 z m 0,0"
         style="fill:#000000;fill-opacity:1;fill-rule:nonzero;stroke:none" />
      <path
         id="path16"
         d="m 8.2902083,-1.5370729 c -1.046875,0.2578125 -1.6328125,1.16406248 -1.6328125,1.89062498 0,0.74218752 0.5703125,1.22656252 1.2578125,1.22656252 0.84375,0 1.5,-0.99218752 1.5,-2.00781252 0,-0.67968748 -0.359375,-1.07812498 -0.578125,-1.31249998 -0.2578125,-0.296875 -0.78125,-0.8671875 -0.78125,-1.1875 0,-0.09375 0.1015625,-0.296875 0.3828125,-0.296875 0.2421875,0 0.4375,0.1171875 0.5859375,0.1953125 0.0625,0.039063 0.3125,0.1875 0.421875,0.1875 0.1640625,0 0.2890625,-0.15625 0.2890625,-0.296875 0,-0.171875 -0.085937,-0.1875 -0.46875,-0.265625 -0.078125,-0.015625 -0.3984375,-0.085937 -0.625,-0.085937 -0.5234375,0 -0.8125,0.3125 -0.8125,0.734375 0,0.3671875 0.21875,0.796875 0.4609375,1.2187495 z m 0.125,0.1875 c 0.1953125,0.3125 0.4453125,0.71874998 0.4453125,1.21874998 0,0.5703125 -0.34375,1.51562502 -0.9296875,1.51562502 -0.3828125,0 -0.7578125,-0.25 -0.7578125,-0.83593752 0,-0.453125 0.265625,-1.66406248 1.2421875,-1.89843748 z m 0,0"
         style="fill:#000000;fill-opacity:1;fill-rule:nonzero;stroke:none" />
      <path
         id="path17"
         d="m 11.505052,-1.2636354 h 1.09375 v -0.25 h -1.09375 v -1.28125 h -0.234375 c -0.0078,0.625 -0.289062,1.3203125 -0.960937,1.3359375 v 0.1953125 h 0.648437 v 1.88281248 c 0,0.78125002 0.585938,0.94531252 0.976563,0.94531252 0.46875,0 0.789062,-0.3984375 0.789062,-0.95312502 v -0.3828125 h -0.234375 v 0.3828125 c 0,0.46875002 -0.226562,0.72656252 -0.5,0.72656252 -0.484375,0 -0.484375,-0.58593752 -0.484375,-0.71093752 z m 0,0"
         style="fill:#000000;fill-opacity:1;fill-rule:nonzero;stroke:none" />
    </g>
    <path
       id="path18"
       d="m 141.73396,-6.39879 v -15.54918 c 0,-2.75117 2.23021,-4.98138 4.98139,-4.98138 h 18.38403 c 2.75118,0 4.98138,2.23021 4.98138,4.98138 v 15.54918 c 0,2.75118 -2.2302,4.98139 -4.98138,4.98139 h -18.38403 c -2.75118,0 -4.98139,-2.23021 -4.98139,-4.98139 z"
       style="fill:#aae3ff;fill-opacity:1;fill-rule:nonzero;stroke:#000000;stroke-width:0.49814;stroke-linecap:butt;stroke-linejoin:miter;stroke-miterlimit:10;stroke-dasharray:none;stroke-opacity:1"
       transform="matrix(1.3333333,0,0,-1.3333333,40.392,0.332)" />
    <g
       id="g18"
       aria-label="ρ&#10;e"
       transform="matrix(2,0,0,2,240.736,21.581333)">
      <path
         id="path19"
         d="m 0.3273125,1.7269115 c -0.03125,0.1171875 -0.03125,0.1328125 -0.03125,0.15625 0,0.1484375 0.109375,0.265625 0.28125,0.265625 0.2109375,0 0.328125,-0.1796875 0.3515625,-0.203125 0.046875,-0.09375 0.3671875,-1.42968754 0.6328125,-2.50000004 0.203125,0.3984375 0.515625,0.6640625 0.984375,0.6640625 1.171875,0 2.453125,-1.40624996 2.453125,-2.89062496 0,-1.0546875 -0.65625,-1.625 -1.3828125,-1.625 -0.96875,0 -2.015625,1 -2.3125,2.21875 z M 2.53825,-0.10902604 c -0.6953125,0 -0.859375,-0.796875 -0.859375,-0.8828125 0,-0.046875 0.054687,-0.24218746 0.085937,-0.37499996 0.2734375,-1.109375 0.375,-1.46875 0.59375,-1.8671875 0.4296875,-0.7265625 0.9296875,-0.9453125 1.234375,-0.9453125 0.3671875,0 0.6875,0.28125 0.6875,0.96875 0,0.5546875 -0.2890625,1.6640625 -0.5546875,2.15625 -0.328125,0.62499996 -0.8046875,0.94531246 -1.1874995,0.94531246 z m 0,0"
         style="fill:#000000;fill-opacity:1;fill-rule:nonzero;stroke:none" />
      <path
         id="path20"
         d="m 8.2198906,-0.09926042 c 0.1484375,0 0.1953125,0 0.1953125,-0.1484375 0,-0.6171875 -0.34375,-1.36718748 -1.3828125,-1.36718748 -0.9140625,0 -1.609375,0.72656248 -1.609375,1.57812498 0,0.890625 0.7734375,1.60156252 1.703125,1.60156252 0.9375,0 1.2890625,-0.75781252 1.2890625,-0.90625002 0,-0.03125 -0.015625,-0.1015625 -0.1171875,-0.1015625 -0.09375,0 -0.109375,0.046875 -0.125,0.1171875 -0.21875,0.56250002 -0.75,0.66406252 -1,0.66406252 -0.328125,0 -0.640625,-0.140625 -0.8515625,-0.40625002 -0.2578125,-0.328125 -0.265625,-0.7578125 -0.265625,-1.03125 z m -2.15625,-0.1796875 c 0.078125,-0.98437498 0.703125,-1.14062498 0.96875,-1.14062498 0.859375,0 0.890625,0.96874998 0.890625,1.14062498 z m 0,0"
         style="fill:#000000;fill-opacity:1;fill-rule:nonzero;stroke:none" />
    </g>
    <path
       id="path21"
       d="m 141.73396,-34.74559 v -15.54918 c 0,-2.75117 2.23021,-4.98138 4.98139,-4.98138 h 18.38403 c 2.75118,0 4.98138,2.23021 4.98138,4.98138 v 15.54918 c 0,2.75117 -2.2302,4.98139 -4.98138,4.98139 h -18.38403 c -2.75118,0 -4.98139,-2.23022 -4.98139,-4.98139 z"
       style="fill:#ffc8c8;fill-opacity:1;fill-rule:nonzero;stroke:#000000;stroke-width:0.49814;stroke-linecap:butt;stroke-linejoin:miter;stroke-miterlimit:10;stroke-dasharray:none;stroke-opacity:1"
       transform="matrix(1.3333333,0,0,-1.3333333,40.392,0.332)" />
    <g
       id="g21"
       aria-label="ρ&#10;s"
       transform="matrix(2,0,0,2,241.12133,59.377333)">
      <path
         id="path22"
         d="m 0.32800521,1.727349 c -0.03125,0.1171875 -0.03125,0.1328125 -0.03125,0.15625 0,0.1484375 0.109375,0.265625 0.28125,0.265625 0.2109375,0 0.328125,-0.1796875 0.3515625,-0.203125 0.046875,-0.09375 0.36718749,-1.42968754 0.63281249,-2.50000004 0.203125,0.3984375 0.515625,0.6640625 0.984375,0.6640625 1.171875,0 2.453125,-1.40624996 2.453125,-2.89062496 0,-1.0546875 -0.65625,-1.625 -1.3828125,-1.625 -0.96875,0 -2.015625,1 -2.3125,2.21875 z M 2.5389427,-0.10858854 c -0.6953125,0 -0.859375,-0.796875 -0.859375,-0.8828125 0,-0.046875 0.054687,-0.24218746 0.085937,-0.37499996 0.2734375,-1.109375 0.375,-1.46875 0.59375,-1.8671875 0.4296875,-0.7265625 0.9296875,-0.9453125 1.234375,-0.9453125 0.3671875,0 0.6875,0.28125 0.6875,0.96875 0,0.5546875 -0.2890625,1.6640625 -0.5546875,2.15625 -0.328125,0.62499996 -0.8046875,0.94531246 -1.1874995,0.94531246 z m 0,0"
         style="fill:#000000;fill-opacity:1;fill-rule:nonzero;stroke:none" />
      <path
         id="path23"
         d="m 7.7908958,-1.4347604 c 0,-0.1171875 0,-0.1796875 -0.09375,-0.1796875 -0.039063,0 -0.046875,0 -0.140625,0.078125 -0.015625,0.00781 -0.085937,0.070312 -0.125,0.109375 -0.2109375,-0.1484375 -0.4765625,-0.1875 -0.734375,-0.1875 -0.9921875,0 -1.234375,0.5234375 -1.234375,0.86718748 0,0.2265625 0.1015625,0.40625 0.265625,0.546875 0.265625,0.2265625 0.53125,0.28125 0.9609375,0.3515625 0.3515625,0.0625 0.9140625,0.15625 0.9140625,0.625 0,0.27343752 -0.1875,0.59375002 -0.859375,0.59375002 -0.6640625,0 -0.90625,-0.43750002 -1.0390625,-0.91406252 -0.015625,-0.09375 -0.023437,-0.1171875 -0.125,-0.1171875 -0.1171875,0 -0.1171875,0.046875 -0.1171875,0.1875 V 1.3855521 c 0,0.1171875 0,0.1796875 0.1015625,0.1796875 0.0625,0 0.1953125,-0.1484375 0.3359375,-0.296875 0.3046875,0.28125 0.6796875,0.296875 0.84375,0.296875 0.9140625,0 1.2421875,-0.4921875 1.2421875,-0.98437502 0,-0.265625 -0.1171875,-0.4765625 -0.296875,-0.640625 -0.265625,-0.2421875 -0.5859375,-0.3046875 -0.828125,-0.34375 -0.5625,-0.09375 -1.015625,-0.1796875 -1.015625,-0.546875 0,-0.22656248 0.1875,-0.49999998 0.8515625,-0.49999998 0.8125,0 0.84375,0.56249998 0.859375,0.76562498 0.00781,0.078125 0.09375,0.078125 0.1171875,0.078125 0.1171875,0 0.1171875,-0.046875 0.1171875,-0.1796875 z m 0,0"
         style="fill:#000000;fill-opacity:1;fill-rule:nonzero;stroke:none" />
    </g>
  </g>
</svg>
